<svg width="60" height="60" viewBox="0 0 60 60" fill="none" xmlns="http://www.w3.org/2000/svg">
<g clip-path="url(#clip0_38473_23980)">
<circle cx="30" cy="30" r="30" fill="#FCEFDC"/>
<circle cx="30" cy="30" r="16" fill="#F18522"/>
<path d="M36.4761 33.8453L31.271 24.7332C31.1409 24.51 30.9552 24.3249 30.7323 24.1963C30.5094 24.0677 30.257 24 30.0002 24C29.7434 24 29.491 24.0677 29.2681 24.1963C29.0452 24.3249 28.8595 24.51 28.7294 24.7332L23.5244 33.8453C23.3992 34.0613 23.3333 34.3069 23.3333 34.5569C23.3333 34.807 23.3992 35.0526 23.5244 35.2685C23.6528 35.4931 23.8381 35.6792 24.0614 35.8078C24.2848 35.9363 24.538 36.0026 24.7951 35.9999H35.2053C35.4622 36.0024 35.7152 35.936 35.9383 35.8075C36.1614 35.6789 36.3466 35.4929 36.4749 35.2685C36.6002 35.0527 36.6664 34.8072 36.6666 34.5571C36.6668 34.307 36.601 34.0614 36.4761 33.8453ZM35.6505 34.7879C35.6051 34.866 35.54 34.9304 35.4618 34.9747C35.3835 35.019 35.295 35.0415 35.2053 35.0399H24.7951C24.7054 35.0415 24.6169 35.019 24.5387 34.9747C24.4604 34.9304 24.3953 34.866 24.3499 34.7879C24.3088 34.7178 24.2871 34.6378 24.2871 34.5563C24.2871 34.4749 24.3088 34.3949 24.3499 34.3247L29.555 25.2126C29.6013 25.135 29.6667 25.0707 29.745 25.0261C29.8232 24.9815 29.9115 24.958 30.0014 24.958C30.0913 24.958 30.1796 24.9815 30.2579 25.0261C30.3361 25.0707 30.4015 25.135 30.4478 25.2126L35.6529 34.3247C35.6936 34.3951 35.7149 34.4752 35.7145 34.5567C35.7141 34.6381 35.692 34.718 35.6505 34.7879ZM29.524 31.2V28.8C29.524 28.6727 29.5742 28.5506 29.6635 28.4606C29.7528 28.3706 29.8739 28.32 30.0002 28.32C30.1265 28.32 30.2476 28.3706 30.3369 28.4606C30.4262 28.5506 30.4764 28.6727 30.4764 28.8V31.2C30.4764 31.3273 30.4262 31.4494 30.3369 31.5394C30.2476 31.6294 30.1265 31.68 30.0002 31.68C29.8739 31.68 29.7528 31.6294 29.6635 31.5394C29.5742 31.4494 29.524 31.3273 29.524 31.2ZM30.7145 33.3599C30.7145 33.5023 30.6726 33.6416 30.5941 33.76C30.5156 33.8784 30.4041 33.9706 30.2735 34.0251C30.143 34.0796 29.9994 34.0939 29.8609 34.0661C29.7223 34.0383 29.5951 33.9698 29.4952 33.8691C29.3953 33.7684 29.3273 33.6401 29.2997 33.5004C29.2721 33.3607 29.2863 33.216 29.3403 33.0844C29.3944 32.9529 29.4859 32.8404 29.6034 32.7613C29.7209 32.6822 29.859 32.64 30.0002 32.64C30.1896 32.64 30.3713 32.7158 30.5053 32.8508C30.6392 32.9859 30.7145 33.169 30.7145 33.3599Z" fill="white"/>
</g>
<defs>
<clipPath id="clip0_38473_23980">
<rect width="60" height="60" fill="white"/>
</clipPath>
</defs>
</svg>
