<svg width="33" height="32" viewBox="0 0 33 32" fill="none" xmlns="http://www.w3.org/2000/svg">
<path d="M25.7969 24.0897C25.4497 24.0897 25.1218 24.2418 24.8818 24.4926C22.6341 26.8421 19.4677 28.3054 15.9594 28.3054C9.14095 28.3054 3.61347 22.7779 3.61347 15.9594C3.61347 9.14093 9.14095 3.61346 15.9594 3.61346C19.9821 3.61346 23.5554 5.5373 25.8094 8.5151C26.0503 8.83335 26.4203 9.03364 26.8195 9.03364H28.4235C29.3114 9.03364 29.8853 8.10759 29.4062 7.35998C26.5696 2.93354 21.6071 0 15.9594 0C7.1453 0 0 7.14528 0 15.9594C0 24.7736 7.1453 31.9189 15.9594 31.9189C21.0462 31.9189 25.5771 29.5391 28.4995 25.8322C29.0775 25.0991 28.5142 24.0897 27.5807 24.0897H25.7969Z" fill="#4285F4"/>
<path d="M28.669 13.0469L29.9662 15.4187L32.338 16.7159L29.9662 18.0131L28.669 20.3849L27.3718 18.0131L25 16.7159L27.3718 15.4187L28.669 13.0469Z" fill="#FFB700"/>
<path d="M25.7969 24.0897C25.4497 24.0897 25.1218 24.2418 24.8818 24.4926C22.6341 26.8421 19.4677 28.3054 15.9594 28.3054C9.14095 28.3054 3.61347 22.7779 3.61347 15.9594C3.61347 9.14093 9.14095 3.61346 15.9594 3.61346C19.9821 3.61346 23.5554 5.5373 25.8094 8.5151C26.0503 8.83335 26.4203 9.03364 26.8195 9.03364H28.4235C29.3114 9.03364 29.8853 8.10759 29.4062 7.35998C26.5696 2.93354 21.6071 0 15.9594 0C7.1453 0 0 7.14528 0 15.9594C0 24.7736 7.1453 31.9189 15.9594 31.9189C21.0462 31.9189 25.5771 29.5391 28.4995 25.8322C29.0775 25.0991 28.5142 24.0897 27.5807 24.0897H25.7969Z" fill="#1563FF"/>
<path d="M28.669 13.0469L29.9662 15.4187L32.338 16.7159L29.9662 18.0131L28.669 20.3849L27.3718 18.0131L25 16.7159L27.3718 15.4187L28.669 13.0469Z" fill="#FFB700"/>
<path d="M23.1703 12.7734L16.8516 16.2994V23.5844L23.1703 19.9523V12.7734Z" fill="#81BEFF"/>
<path d="M16.0999 23.5312V16.2994L9.78125 12.7734V19.8991L16.0999 23.5312Z" fill="#449EFF"/>
<path d="M22.8896 12.1051L16.4956 8.42969L10.0547 12.1321L16.448 15.6997L22.8896 12.1051Z" fill="#1563FF"/>
</svg>
