<svg width="149" height="32" viewBox="0 0 149 32" fill="none" xmlns="http://www.w3.org/2000/svg">
<path d="M25.7969 24.0897C25.4497 24.0897 25.1218 24.2418 24.8818 24.4926C22.6341 26.8421 19.4677 28.3054 15.9594 28.3054C9.14095 28.3054 3.61347 22.7779 3.61347 15.9594C3.61347 9.14093 9.14095 3.61346 15.9594 3.61346C19.9821 3.61346 23.5554 5.5373 25.8094 8.5151C26.0503 8.83335 26.4203 9.03364 26.8195 9.03364H28.4235C29.3114 9.03364 29.8853 8.10759 29.4062 7.35998C26.5696 2.93354 21.6071 0 15.9594 0C7.1453 0 0 7.14528 0 15.9594C0 24.7736 7.1453 31.9189 15.9594 31.9189C21.0462 31.9189 25.5771 29.5391 28.4995 25.8322C29.0775 25.0991 28.5142 24.0897 27.5807 24.0897H25.7969Z" fill="#4285F4"/>
<path d="M28.6729 13.0469L29.9701 15.4187L32.3419 16.7159L29.9701 18.0131L28.6729 20.3849L27.3757 18.0131L25.0039 16.7159L27.3757 15.4187L28.6729 13.0469Z" fill="#FFB700"/>
<path d="M25.7969 24.0897C25.4497 24.0897 25.1218 24.2418 24.8818 24.4926C22.6341 26.8421 19.4677 28.3054 15.9594 28.3054C9.14095 28.3054 3.61347 22.7779 3.61347 15.9594C3.61347 9.14093 9.14095 3.61346 15.9594 3.61346C19.9821 3.61346 23.5554 5.5373 25.8094 8.5151C26.0503 8.83335 26.4203 9.03364 26.8195 9.03364H28.4235C29.3114 9.03364 29.8853 8.10759 29.4062 7.35998C26.5696 2.93354 21.6071 0 15.9594 0C7.1453 0 0 7.14528 0 15.9594C0 24.7736 7.1453 31.9189 15.9594 31.9189C21.0462 31.9189 25.5771 29.5391 28.4995 25.8322C29.0775 25.0991 28.5142 24.0897 27.5807 24.0897H25.7969Z" fill="#1563FF"/>
<path d="M28.6729 13.0469L29.9701 15.4187L32.3419 16.7159L29.9701 18.0131L28.6729 20.3849L27.3757 18.0131L25.0039 16.7159L27.3757 15.4187L28.6729 13.0469Z" fill="#FFB700"/>
<path d="M23.1703 12.7734L16.8516 16.2994V23.5844L23.1703 19.9523V12.7734Z" fill="#81BEFF"/>
<path d="M16.1038 23.5312V16.2994L9.78516 12.7734V19.8991L16.1038 23.5312Z" fill="#449EFF"/>
<path d="M22.8896 12.1051L16.4956 8.42969L10.0547 12.1321L16.448 15.6997L22.8896 12.1051Z" fill="#1563FF"/>
<path d="M43.1617 12.8607C43.7258 12.5698 44.3978 12.4244 45.175 12.4244C45.8545 12.4244 46.4487 12.5272 46.9601 12.7353C47.4716 12.9409 47.8903 13.2343 48.2137 13.6128C48.5371 13.9914 48.7503 14.4402 48.848 14.9617H51.3703C51.2625 14.0165 50.934 13.1916 50.39 12.4846C49.8434 11.7776 49.1263 11.226 48.2363 10.8324C47.3462 10.4387 46.3308 10.2432 45.19 10.2432C43.9314 10.2432 42.8283 10.4839 41.878 10.9652C40.9278 11.4466 40.1882 12.1185 39.6567 12.9785C39.1251 13.8385 38.8594 14.8439 38.8594 15.9947C38.8594 17.1455 39.1251 18.1509 39.6567 19.0108C40.1882 19.8708 40.9278 20.5427 41.878 21.0241C42.8283 21.5055 43.9314 21.7462 45.19 21.7462C46.3308 21.7462 47.3462 21.5481 48.2363 21.157C49.1263 20.7634 49.8434 20.2093 50.39 19.4972C50.9365 18.7852 51.2625 17.9603 51.3703 17.0251H48.848C48.7503 17.5567 48.5371 18.0105 48.2137 18.3891C47.8903 18.7676 47.4716 19.0585 46.9601 19.259C46.4487 19.4596 45.8545 19.5624 45.175 19.5624C44.3978 19.5624 43.7258 19.417 43.1617 19.1262C42.5951 18.8353 42.1614 18.4242 41.8555 17.8876C41.5496 17.3511 41.3992 16.7193 41.3992 15.9922C41.3992 15.2651 41.5521 14.6333 41.8555 14.0967C42.1588 13.5602 42.5951 13.1465 43.1617 12.8582V12.8607Z" fill="#1563FF"/>
<path d="M58.0996 12.9108C57.5304 12.9108 57.0365 13.0262 56.6253 13.2568C56.2117 13.4875 55.8657 13.8034 55.5849 14.1995C55.4043 14.4578 55.2489 14.7461 55.121 15.057V13.129H52.6289L52.659 15.8869V21.523H55.1235V17.8951C55.1235 17.2357 55.2364 16.6917 55.462 16.2579C55.6877 15.8242 55.9985 15.5058 56.3922 15.3002C56.7858 15.0946 57.2271 14.9893 57.7185 14.9893C57.9441 14.9893 58.1848 15.0043 58.4406 15.0344C58.6963 15.0645 58.952 15.1071 59.2078 15.1673V13.0437C59.0398 13.0036 58.8618 12.9735 58.6687 12.9484C58.4782 12.9234 58.2876 12.9108 58.0996 12.9108Z" fill="#1563FF"/>
<path d="M68.4619 15.3604C68.0833 14.5831 67.5442 13.9814 66.8472 13.5527C66.1477 13.1239 65.3128 12.9108 64.34 12.9108C63.3672 12.9108 62.5349 13.0964 61.7877 13.4649C61.0406 13.8335 60.4514 14.3474 60.0252 15.0068C59.5964 15.6662 59.3833 16.4334 59.3833 17.3085C59.3833 18.1835 59.6064 18.9707 60.0552 19.6401C60.504 20.3096 61.1183 20.8285 61.9005 21.1971C62.6828 21.5657 63.5703 21.7512 64.5632 21.7512C65.3805 21.7512 66.1527 21.6409 66.8873 21.4202C67.6194 21.1996 68.2613 20.8912 68.8129 20.4976V18.8454C68.3014 19.1788 67.7272 19.4371 67.0879 19.6201C66.4486 19.8031 65.8143 19.8934 65.185 19.8934C64.4854 19.8934 63.8912 19.7856 63.3998 19.5699C62.9084 19.3543 62.5348 19.0384 62.2791 18.6247C62.1813 18.4668 62.1086 18.2913 62.0459 18.1082H69.0335C69.0335 17.0552 68.843 16.1426 68.4644 15.3654L68.4619 15.3604ZM61.9632 16.466C62.0133 16.2504 62.0886 16.0523 62.1914 15.8693C62.3919 15.5108 62.6778 15.23 63.0463 15.0294C63.4149 14.8288 63.8511 14.726 64.3526 14.726C64.8139 14.726 65.2176 14.8188 65.5635 15.0068C65.907 15.1949 66.1803 15.4581 66.3809 15.8041C66.4962 15.9997 66.5815 16.2228 66.6441 16.4685H61.9632V16.466Z" fill="#1563FF"/>
<path d="M95.4117 13.3922C94.8752 13.0738 94.2333 12.9133 93.4862 12.9133C92.8368 12.9133 92.2451 13.0763 91.7086 13.3997C91.172 13.7232 90.7283 14.192 90.3747 14.8013C90.3196 14.8965 90.2719 15.0018 90.2243 15.1021C90.1817 14.9843 90.1391 14.8664 90.0864 14.7561C89.8056 14.1669 89.3994 13.7106 88.8704 13.3922C88.3389 13.0738 87.6996 12.9133 86.9524 12.9133C86.293 12.9133 85.6963 13.0763 85.1598 13.3997C84.6859 13.6855 84.2898 14.0892 83.9588 14.5982V13.134H81.4943V21.5281H83.9588V17.4714C83.9588 16.9499 84.0441 16.5036 84.2171 16.1301C84.3901 15.7565 84.6383 15.4632 84.9617 15.2525C85.2851 15.0419 85.6687 14.9366 86.1125 14.9366C86.7418 14.9366 87.2207 15.1297 87.5516 15.5183C87.8801 15.9069 88.0456 16.4786 88.0456 17.2357V21.5281H90.5101V17.4714C90.5101 16.9499 90.5954 16.5036 90.7684 16.1301C90.9414 15.7565 91.1896 15.4632 91.513 15.2525C91.8364 15.0419 92.22 14.9366 92.6638 14.9366C93.2931 14.9366 93.772 15.1297 94.1029 15.5183C94.4339 15.9069 94.5969 16.4786 94.5969 17.2357V21.5281H97.0614V16.8672C97.0614 16.0523 96.921 15.3478 96.6402 14.7586C96.3594 14.1694 95.9507 13.7131 95.4167 13.3947L95.4117 13.3922Z" fill="#1563FF"/>
<path d="M102.434 12.8607C102.998 12.5698 103.67 12.4244 104.448 12.4244C105.127 12.4244 105.721 12.5272 106.233 12.7353C106.744 12.9409 107.163 13.2343 107.486 13.6128C107.81 13.9914 108.023 14.4402 108.121 14.9617H110.643C110.535 14.0165 110.207 13.1916 109.663 12.4846C109.116 11.7776 108.399 11.226 107.509 10.8324C106.619 10.4387 105.603 10.2432 104.463 10.2432C103.204 10.2432 102.101 10.4839 101.151 10.9652C100.2 11.4466 99.4608 12.1185 98.9318 12.9785C98.4002 13.8385 98.1345 14.8439 98.1345 15.9947C98.1345 17.1455 98.4002 18.1509 98.9318 19.0108C99.4633 19.8708 100.203 20.5427 101.151 21.0241C102.101 21.5055 103.204 21.7462 104.463 21.7462C105.603 21.7462 106.619 21.5481 107.509 21.157C108.399 20.7659 109.116 20.2093 109.663 19.4972C110.209 18.7852 110.535 17.9603 110.643 17.0251H108.121C108.023 17.5567 107.81 18.0105 107.486 18.3891C107.163 18.7676 106.744 19.0585 106.233 19.259C105.721 19.4596 105.127 19.5624 104.448 19.5624C103.67 19.5624 102.998 19.417 102.434 19.1262C101.868 18.8353 101.434 18.4242 101.128 17.8876C100.822 17.3511 100.672 16.7193 100.672 15.9922C100.672 15.2651 100.825 14.6333 101.128 14.0967C101.431 13.5602 101.868 13.1465 102.434 12.8582V12.8607Z" fill="#1563FF"/>
<path d="M119.36 13.4649C118.573 13.0964 117.658 12.9108 116.618 12.9108C115.577 12.9108 114.659 13.0964 113.875 13.4649C113.09 13.8335 112.473 14.35 112.032 15.0144C111.591 15.6788 111.367 16.4535 111.367 17.3385C111.367 18.2236 111.588 18.9833 112.032 19.6477C112.476 20.3121 113.09 20.8285 113.875 21.1971C114.662 21.5657 115.577 21.7512 116.618 21.7512C117.658 21.7512 118.573 21.5657 119.36 21.1971C120.148 20.8285 120.759 20.3121 121.198 19.6477C121.637 18.9833 121.855 18.2135 121.855 17.3385C121.855 16.4635 121.637 15.6788 121.198 15.0144C120.759 14.35 120.148 13.8335 119.36 13.4649ZM119.029 18.6874C118.809 19.066 118.493 19.3593 118.087 19.5649C117.678 19.7705 117.189 19.8758 116.62 19.8758C116.051 19.8758 115.572 19.773 115.158 19.5649C114.745 19.3593 114.429 19.066 114.208 18.6874C113.987 18.3088 113.877 17.86 113.877 17.3385C113.877 16.817 113.987 16.3532 114.208 15.9746C114.429 15.596 114.747 15.3027 115.158 15.0971C115.572 14.8915 116.058 14.7862 116.62 14.7862C117.182 14.7862 117.681 14.889 118.087 15.0971C118.495 15.3027 118.809 15.596 119.029 15.9746C119.25 16.3532 119.36 16.807 119.36 17.3385C119.36 17.8701 119.25 18.3088 119.029 18.6874Z" fill="#1563FF"/>
<path d="M125.498 10.168H123.033V21.5256H125.498V10.168Z" fill="#1563FF"/>
<path d="M129.57 10.168H127.105V21.5256H129.57V10.168Z" fill="#1563FF"/>
<path d="M148.459 12.9484C148.268 12.9234 148.078 12.9108 147.892 12.9108C147.321 12.9108 146.829 13.0262 146.418 13.2568C146.007 13.4875 145.658 13.8034 145.378 14.1995C145.197 14.4578 145.044 14.7461 144.914 15.057V13.129H142.422L142.452 15.8869V21.523H144.916V17.8951C144.916 17.2357 145.029 16.6917 145.255 16.2579C145.48 15.8242 145.791 15.5058 146.185 15.3002C146.579 15.0946 147.02 14.9893 147.511 14.9893C147.737 14.9893 147.978 15.0043 148.233 15.0344C148.489 15.0645 148.745 15.1071 149.001 15.1673V13.0437C148.833 13.0036 148.655 12.9735 148.461 12.9484H148.459Z" fill="#1563FF"/>
<path d="M77.4902 14.701C77.1066 14.182 76.6503 13.7633 76.1163 13.4574C75.482 13.0938 74.7724 12.9108 73.9852 12.9108C73.1979 12.9108 72.4458 13.0964 71.8165 13.4649C71.1872 13.8335 70.6983 14.35 70.3498 15.0144C70.0013 15.6788 69.8258 16.4535 69.8258 17.3385C69.8258 18.2236 70.0013 18.9833 70.3498 19.6477C70.6983 20.3121 71.1872 20.8285 71.8165 21.1971C72.4458 21.5657 73.1678 21.7512 73.9852 21.7512C74.8025 21.7512 75.482 21.5682 76.1163 21.2046C76.6528 20.8962 77.1091 20.475 77.4902 19.951L77.4226 21.5281H79.9749V13.134H77.4226L77.4902 14.7035V14.701ZM76.9011 18.6122C76.7055 18.9707 76.3946 19.2465 76.0336 19.4421C75.6725 19.6376 75.2413 19.7354 74.7373 19.7354C74.2334 19.7354 73.8122 19.6376 73.4487 19.4421C73.0851 19.2465 72.8043 18.9707 72.6087 18.6122C72.4132 18.2537 72.3154 17.8299 72.3154 17.336C72.3154 16.8421 72.4132 16.4059 72.6087 16.0473C72.8043 15.6888 73.0826 15.413 73.4487 15.2174C73.8122 15.0219 74.2434 14.9241 74.7373 14.9241C75.2313 14.9241 75.6725 15.0219 76.0336 15.2174C76.3946 15.413 76.7055 15.6888 76.9011 16.0473C77.0966 16.4059 77.222 16.8271 77.222 17.331C77.222 17.835 77.0966 18.2562 76.9011 18.6122Z" fill="#1563FF"/>
<path d="M138.443 14.701C138.059 14.182 137.603 13.7633 137.069 13.4574C136.434 13.0938 135.725 12.9108 134.938 12.9108C134.15 12.9108 133.398 13.0964 132.769 13.4649C132.14 13.8335 131.651 14.35 131.302 15.0144C130.954 15.6788 130.778 16.4535 130.778 17.3385C130.778 18.2236 130.954 18.9833 131.302 19.6477C131.651 20.3121 132.14 20.8285 132.769 21.1971C133.398 21.5657 134.12 21.7512 134.938 21.7512C135.755 21.7512 136.434 21.5682 137.069 21.2046C137.605 20.8962 138.062 20.475 138.443 19.951L138.375 21.5281H140.927V13.134H138.375L138.443 14.7035V14.701ZM137.856 18.6122C137.66 18.9707 137.35 19.2465 136.989 19.4421C136.628 19.6376 136.196 19.7354 135.692 19.7354C135.188 19.7354 134.767 19.6376 134.404 19.4421C134.04 19.2465 133.759 18.9707 133.564 18.6122C133.368 18.2537 133.27 17.8299 133.27 17.336C133.27 16.8421 133.368 16.4059 133.564 16.0473C133.759 15.6888 134.038 15.413 134.404 15.2174C134.767 15.0219 135.198 14.9241 135.692 14.9241C136.186 14.9241 136.628 15.0219 136.989 15.2174C137.35 15.413 137.66 15.6888 137.856 16.0473C138.052 16.4059 138.177 16.8271 138.177 17.331C138.177 17.835 138.052 18.2562 137.856 18.6122Z" fill="#1563FF"/>
</svg>
