<svg width="16" height="16" viewBox="0 0 16 16" fill="none" xmlns="http://www.w3.org/2000/svg">
<path fill-rule="evenodd" clip-rule="evenodd" d="M4.3125 4.31438C4.50778 4.11914 4.82436 4.11917 5.0196 4.31445L8.16075 7.4562L11.3032 4.31438C11.4984 4.11914 11.815 4.11917 12.0103 4.31445C12.2055 4.50973 12.2055 4.82631 12.0102 5.02156L8.86816 8.163L12.0102 11.3051C12.2055 11.5003 12.2055 11.8169 12.0102 12.0122C11.815 12.2075 11.4984 12.2075 11.3031 12.0122L8.16135 8.87041L5.01957 12.0122C4.82431 12.2075 4.50772 12.2075 4.31246 12.0122C4.1172 11.8169 4.1172 11.5003 4.31246 11.3051L7.45394 8.1636L4.31243 5.02149C4.11718 4.82621 4.11722 4.50963 4.3125 4.31438Z" fill="#696A6F"/>
</svg>
