<svg width="16" height="18" viewBox="0 0 16 18" fill="none" xmlns="http://www.w3.org/2000/svg">
<path d="M6.15777 3H9.84183C9.84183 2.50272 9.64776 2.02581 9.30231 1.67417C8.95686 1.32254 8.48834 1.125 7.9998 1.125C7.51127 1.125 7.04274 1.32254 6.69729 1.67417C6.35184 2.02581 6.15777 2.50272 6.15777 3ZM5.05256 3C5.05256 2.20435 5.36307 1.44129 5.91579 0.87868C6.4685 0.316071 7.21815 0 7.9998 0C8.78146 0 9.5311 0.316071 10.0838 0.87868C10.6365 1.44129 10.947 2.20435 10.947 3H15.4474C15.594 3 15.7345 3.05926 15.8381 3.16475C15.9418 3.27024 16 3.41332 16 3.5625C16 3.71168 15.9418 3.85476 15.8381 3.96025C15.7345 4.06574 15.594 4.125 15.4474 4.125H14.5869L13.6902 15.0773C13.6249 15.874 13.2679 16.6167 12.69 17.1581C12.112 17.6994 11.3552 17.9999 10.5698 18H5.42981C4.64436 17.9999 3.88762 17.6994 3.30964 17.1581C2.73166 16.6167 2.37466 15.874 2.30942 15.0773L1.41272 4.125H0.552607C0.406047 4.125 0.265489 4.06574 0.161855 3.96025C0.0582209 3.85476 0 3.71168 0 3.5625C0 3.41332 0.0582209 3.27024 0.161855 3.16475C0.265489 3.05926 0.406047 3 0.552607 3H5.05256ZM3.41095 14.9835C3.45309 15.4991 3.68403 15.9797 4.05798 16.33C4.43192 16.6804 4.92157 16.8749 5.42981 16.875H10.5698C11.078 16.8749 11.5677 16.6804 11.9416 16.33C12.3156 15.9797 12.5465 15.4991 12.5887 14.9835L13.4787 4.125H2.52162L3.41095 14.9835ZM6.34198 6.75C6.48854 6.75 6.6291 6.80926 6.73273 6.91475C6.83636 7.02024 6.89458 7.16332 6.89458 7.3125V13.6875C6.89458 13.8367 6.83636 13.9798 6.73273 14.0852C6.6291 14.1907 6.48854 14.25 6.34198 14.25C6.19542 14.25 6.05486 14.1907 5.95123 14.0852C5.84759 13.9798 5.78937 13.8367 5.78937 13.6875V7.3125C5.78937 7.16332 5.84759 7.02024 5.95123 6.91475C6.05486 6.80926 6.19542 6.75 6.34198 6.75ZM10.2102 7.3125C10.2102 7.16332 10.152 7.02024 10.0484 6.91475C9.94474 6.80926 9.80418 6.75 9.65762 6.75C9.51106 6.75 9.3705 6.80926 9.26687 6.91475C9.16324 7.02024 9.10502 7.16332 9.10502 7.3125V13.6875C9.10502 13.8367 9.16324 13.9798 9.26687 14.0852C9.3705 14.1907 9.51106 14.25 9.65762 14.25C9.80418 14.25 9.94474 14.1907 10.0484 14.0852C10.152 13.9798 10.2102 13.8367 10.2102 13.6875V7.3125Z" fill="#0B6AEA"/>
</svg>
