<svg width="24" height="24" viewBox="0 0 24 24" xmlns="http://www.w3.org/2000/svg">
<path d="M20.1335 3.86659C19.8586 3.59185 19.5324 3.37391 19.1733 3.22522C18.8142 3.07653 18.4294 3 18.0407 3C17.652 3 17.2672 3.07653 16.9081 3.22522C16.549 3.37391 16.2227 3.59185 15.9479 3.86659L4.81915 14.9919C4.48798 15.323 4.24713 15.7338 4.12068 16.1852L2.95632 20.3421C2.92942 20.4384 2.92863 20.5402 2.95403 20.637C2.97943 20.7337 3.03012 20.822 3.10088 20.8928C3.17165 20.9635 3.25996 21.0142 3.35676 21.0396C3.45357 21.065 3.55538 21.0642 3.65178 21.0373L7.80945 19.8733C8.261 19.747 8.67238 19.5066 9.00392 19.1751L20.1335 8.04979C20.6883 7.49502 21 6.74267 21 5.95819C21 5.17372 20.6883 4.42137 20.1335 3.86659ZM16.7465 4.66411C17.0898 4.321 17.5555 4.12828 18.041 4.12835C18.5264 4.12842 18.992 4.32127 19.3353 4.66449C19.6785 5.0077 19.8713 5.47315 19.8712 5.95846C19.8712 6.44376 19.6782 6.90916 19.3349 7.25228L18.1758 8.41018L15.5874 5.82201L16.7465 4.66411ZM14.7896 6.62028L17.3787 9.20845L8.20535 18.3776C8.01106 18.5719 7.76999 18.7128 7.50538 18.7869L4.31336 19.68L5.20677 16.4899C5.28101 16.2255 5.422 15.9845 5.61621 15.7902L14.7896 6.62028Z"/>
</svg>
