<svg width="138" height="211" viewBox="0 0 138 211" fill="none" xmlns="http://www.w3.org/2000/svg">
<g clip-path="url(#clip0_7875_75041)">
<path d="M111.782 178.161C109.946 182.649 97.6231 182.08 96.1956 185.917C94.7681 189.754 107.335 189.388 106.927 194.204C106.518 199.02 98.9294 199.757 85.3013 200.531C71.6733 201.306 68.654 204.899 55.0259 209.349C41.3979 213.798 35.4001 208.043 27.7717 203.879C20.183 199.756 5.61612 207.349 1.04582 200.939C-3.5254 194.49 8.91902 192.204 19.8952 189.714C30.9117 187.183 25.9342 185.999 25.6482 180.651C25.6144 180.172 25.6763 179.69 25.8304 179.235C25.9845 178.779 26.2277 178.359 26.5459 177.998C29.0349 175.305 36.258 175.263 44.9072 175.426C55.8015 175.671 58.5352 172.038 73.7139 172.364C87.7093 172.65 109.661 173.507 111.66 177.141C111.778 177.28 111.852 177.451 111.874 177.633C111.896 177.814 111.864 177.998 111.782 178.161Z" fill="#99ADF9"/>
<path d="M133.081 186.121C132.922 186.401 132.73 186.661 132.51 186.897C130.755 188.815 125.002 189.997 120.392 190.081C114.679 190.122 108.722 189.755 108.517 186.285C108.355 182.815 122.962 182.611 128.063 183.182C132.469 183.59 133.856 184.611 133.081 186.121Z" fill="#99ADF9"/>
<path d="M20.1825 185.552C20.0743 185.784 19.9219 185.992 19.7337 186.164C18.3455 187.675 13.8173 188.655 10.1859 188.696C5.69936 188.737 0.964341 188.45 0.840795 185.634C0.719562 182.86 12.2237 182.695 16.2244 183.144C19.6925 183.511 20.835 184.327 20.1825 185.552Z" fill="#99ADF9"/>
<path d="M93.2588 207.3C89.2604 208.892 74.3266 208.973 74.3673 207.014C74.3676 206.762 74.4539 206.517 74.612 206.32C75.7138 204.769 80.2836 203.912 84.4046 203.748C89.2604 203.585 92.5652 204.116 94.0329 204.891C95.3808 205.626 95.1768 206.524 93.2588 207.3Z" fill="#99ADF9"/>
<path d="M55.1516 202.449C51.4794 203.796 39.8101 203.47 39.891 201.061C39.9005 200.765 39.9701 200.473 40.0956 200.204C41.0747 198.326 44.1351 197.632 47.6439 197.51C51.7242 197.346 55.0683 197.999 56.4167 198.775C58.1301 199.714 58.1708 201.306 55.1516 202.449Z" fill="#7C99F2"/>
<path d="M100.393 179.545C98.2329 180.606 90.3579 180.525 90.3986 179.137C90.4005 178.966 90.4425 178.798 90.5212 178.647C91.1334 177.586 93.5405 177.015 95.7439 176.932C98.3144 176.851 100.069 177.259 100.803 177.83C101.538 178.361 101.416 179.014 100.393 179.545Z" fill="#7C99F2"/>
<path d="M98.2779 194.173C96.5237 195.03 90.0767 194.948 90.1174 193.846C90.1199 193.702 90.1624 193.56 90.24 193.438C90.7296 192.581 92.729 192.091 94.5243 192.05C96.6459 191.969 98.0743 192.336 98.686 192.785C99.2163 193.234 99.1349 193.765 98.2779 194.173Z" fill="#7C99F2"/>
<path d="M78.7684 193.491C60.2443 198.594 32.4574 190.103 32.7008 185.246C32.7457 184.631 33.0065 184.053 33.437 183.613C36.6196 180.102 49.5947 179.124 61.3853 179.818C75.2188 180.672 84.5625 182.878 88.6437 185.246C92.3557 187.327 88.2347 190.879 78.7684 193.491Z" fill="#7C99F2"/>
<path d="M31.7303 194.818C29.9756 195.798 23.4471 195.716 23.5281 194.451C23.5303 194.293 23.5725 194.139 23.6507 194.002C24.1407 193.022 26.1401 192.491 27.9355 192.41C30.0571 192.328 31.4869 192.695 32.0972 193.226C32.6687 193.757 32.5868 194.369 31.7303 194.818Z" fill="#7C99F2"/>
<path d="M91.1814 51.3872C91.1814 51.3872 90.1204 48.0806 93.7925 47.8766C97.4647 47.7132 93.7925 42.2841 97.4647 39.1409C101.137 35.9976 105.503 37.3853 105.666 41.5901C105.83 45.7948 105.136 48.4073 105.666 49.4688C106.197 50.5303 107.749 47.5504 109.665 49.6321C111.582 51.7139 99.7093 91.9248 99.7093 91.9248L93.2604 90.3312L91.1814 51.3872Z" fill="#D2E9FF"/>
<path d="M102.86 57.8272C101.105 58.6435 97.5147 82.6466 100.493 80.2798C101.187 79.7486 107.348 55.745 102.86 57.8272Z" fill="#E3F0FF"/>
<path d="M133.25 32.434C133.086 33.4991 132.84 34.5499 132.515 35.5773C129.659 44.2301 121.866 44.5582 121.744 45.7419C121.621 47.0481 127.374 51.3755 121.988 56.6412C116.602 61.907 105.627 55.2124 102.729 54.9676C98.6492 54.6409 90.1624 61.9084 84.3275 54.3554C80.5735 49.4968 86.6124 46.7626 85.2252 45.4152C83.8379 44.0677 72.9844 43.8234 72.9844 31.6178V30.883C73.3925 18.6773 84.2461 19.5343 84.7763 17.1258C85.3066 14.7174 85.1845 0.592811 102.321 -0.0193687C119.499 -0.631548 118.968 16.7584 120.519 17.5751C122.151 18.4321 135.086 20.6777 133.25 32.434Z" fill="#E3F0FF"/>
<path d="M119.627 42.5946C123.299 41.0842 128.807 38.3898 132.48 35.5732C129.624 44.2261 121.831 44.5542 121.708 45.7378C121.586 47.0441 127.339 51.3715 121.953 56.6372C116.567 61.903 105.591 55.2083 102.694 54.9636C98.614 54.6369 90.1273 61.9044 84.2923 54.3514C80.5383 49.4928 86.5773 46.7586 85.19 45.4111C83.8028 44.0637 72.9492 43.8189 72.9492 31.6133C73.8876 33.5317 75.8463 36.2669 80.0487 38.1839C87.1075 41.4091 92.0855 37.8165 94.5745 41.2841C97.0634 44.7518 91.8407 46.9178 94.1663 48.9588C96.5327 50.9999 100.205 45.8586 106.08 48.5914C111.997 51.3266 115.669 53.1229 117.995 50.6325C120.443 48.1056 114.404 44.7578 119.627 42.5946Z" fill="#D2E9FF"/>
<path d="M91.7632 25.1929C91.7122 25.1473 91.6574 25.1062 91.5994 25.0699C91.4377 24.9477 91.2875 24.8111 91.1505 24.6617C90.6463 24.1567 90.2205 23.579 89.8873 22.9478C89.6572 22.5307 89.4656 22.0935 89.3149 21.6416C89.1592 21.1215 89.05 20.5887 88.9887 20.0493C88.9411 19.4781 88.9547 18.9033 89.0294 18.335C89.0643 18.0457 89.119 17.7592 89.1932 17.4775C89.2243 17.3119 89.2652 17.1483 89.3159 16.9875L89.4385 16.5794C89.6194 16.0021 89.8794 15.4527 90.2112 14.9469C90.5537 14.4418 90.9664 13.9881 91.437 13.5995C91.8891 13.254 92.3824 12.9661 92.9056 12.7425C93.3799 12.555 93.8727 12.418 94.3757 12.3339C94.7936 12.2688 95.2166 12.2415 95.6394 12.2525C95.9663 12.2439 96.2934 12.2575 96.6185 12.2932C96.8239 12.3094 97.0283 12.3367 97.2307 12.3751C97.3107 12.3976 97.3929 12.4112 97.4759 12.4158C97.6003 12.4405 97.7184 12.49 97.8233 12.5614C97.9281 12.6328 98.0174 12.7246 98.086 12.8313C98.1545 12.9379 98.2008 13.0573 98.2222 13.1823C98.2436 13.3073 98.2395 13.4354 98.2103 13.5588C98.1857 13.6832 98.1363 13.8013 98.065 13.9062C97.9936 14.0111 97.9019 14.1005 97.7953 14.1691C97.6886 14.2377 97.5692 14.284 97.4442 14.3054C97.3192 14.3268 97.1912 14.3228 97.0678 14.2936H96.9452C96.902 14.2886 96.8602 14.2747 96.8226 14.2528C96.6659 14.1953 96.4999 14.1676 96.333 14.1714C96.0782 14.1174 95.8184 14.0901 95.558 14.09C95.2319 14.0695 94.9049 14.0695 94.5788 14.09C94.2009 14.1127 93.8291 14.1953 93.4771 14.3347C93.0844 14.4527 92.7126 14.6317 92.3754 14.865C92.0009 15.1237 91.6704 15.4406 91.3962 15.8039C91.0919 16.1814 90.8569 16.6099 90.7022 17.0694L90.5388 17.4368L90.4574 17.7635C90.3644 17.9986 90.3095 18.2469 90.2945 18.4992C90.2149 18.9714 90.1739 19.4493 90.1719 19.9281C90.1835 20.3814 90.2382 20.8326 90.3352 21.2755C90.4215 21.6725 90.5587 22.0566 90.7433 22.4185C91.0098 22.9798 91.3523 23.5017 91.7613 23.9695L92.1287 24.3369L92.2514 24.4595H92.2935C92.3767 24.5369 92.4273 24.6431 92.435 24.7565C92.4426 24.8699 92.4067 24.982 92.3346 25.0699C92.3064 25.1168 92.2688 25.1574 92.2242 25.1892C92.1797 25.221 92.1291 25.2434 92.0755 25.2549C92.022 25.2665 91.9667 25.2669 91.9129 25.2563C91.8592 25.2456 91.8083 25.224 91.7632 25.1929Z" fill="#D2E9FF"/>
<path d="M96.6908 13.2179C96.6962 13.1216 96.7099 13.026 96.7315 12.932C96.7722 12.7686 96.8541 12.5238 96.9355 12.1972C97.2092 11.3333 97.6221 10.5199 98.1581 9.78916C98.5194 9.28487 98.9612 8.8434 99.4657 8.48244C100.021 8.07083 100.624 7.72808 101.261 7.46168C101.587 7.33952 101.952 7.25808 102.323 7.13546C102.686 7.06111 103.054 7.00658 103.423 6.97212C103.79 6.93817 104.157 6.92457 104.525 6.9314H105.137L105.627 6.97212C105.79 7.01284 105.912 7.01284 106.116 7.05356L106.729 7.2169C106.933 7.29834 107.137 7.33952 107.341 7.42096L107.871 7.66574C108.225 7.82102 108.555 8.02726 108.85 8.27792C109.154 8.50094 109.441 8.7469 109.707 9.01364C110.591 9.96969 111.246 11.1141 111.623 12.3605C111.884 13.2007 112.075 14.0608 112.195 14.9323C112.235 15.259 112.235 15.5038 112.276 15.6671V15.9545C112.283 16.1269 112.256 16.299 112.196 16.4609C112.136 16.6227 112.045 16.7711 111.927 16.8975C111.81 17.0238 111.668 17.1256 111.511 17.197C111.354 17.2683 111.184 17.3078 111.012 17.3132C110.839 17.3186 110.667 17.2898 110.506 17.2283C110.345 17.1669 110.197 17.0741 110.072 16.9553C109.947 16.8366 109.846 16.6942 109.776 16.5363C109.707 16.3785 109.669 16.2084 109.665 16.0359V15.7499C109.668 15.5586 109.654 15.3674 109.624 15.1785C109.574 14.4735 109.451 13.7757 109.257 13.0962C109.004 12.1827 108.559 11.3335 107.952 10.6054C107.786 10.4184 107.609 10.2412 107.422 10.0747C107.238 9.91103 107.033 9.77368 106.811 9.66654L106.485 9.46248C106.362 9.42176 106.281 9.38104 106.158 9.33986L105.832 9.21724C105.71 9.17652 105.506 9.17652 105.383 9.1358L104.894 9.05436H104.568C104.282 9.03394 103.996 9.03394 103.711 9.05436C103.425 9.09508 103.139 9.09508 102.894 9.1358C102.65 9.21724 102.364 9.25842 102.119 9.33986C101.65 9.48237 101.208 9.70327 100.812 9.99322C100.452 10.2386 100.134 10.5421 99.8734 10.8914C99.441 11.4259 99.1092 12.0346 98.8942 12.6876C98.8128 12.9324 98.7716 13.0958 98.7309 13.2184C98.7102 13.2708 98.6966 13.3257 98.6902 13.3817V13.4632C98.6331 13.7103 98.4816 13.9252 98.2681 14.0622C98.0547 14.1991 97.7961 14.2472 97.5477 14.1961C97.4216 14.2068 97.2948 14.1878 97.1774 14.1404C97.06 14.0931 96.9554 14.0188 96.872 13.9236C96.7886 13.8284 96.7287 13.715 96.6972 13.5924C96.6658 13.4698 96.6635 13.3415 96.6908 13.2179Z" fill="#D2E9FF"/>
<path d="M116.968 19.2266C116.968 19.2266 117.254 19.2266 117.703 19.2673C118.31 19.3212 118.911 19.4305 119.498 19.594C120.373 19.8189 121.192 20.2219 121.904 20.7776C122.322 21.1069 122.692 21.4914 123.006 21.9205C123.166 22.1514 123.303 22.3975 123.414 22.6553L123.577 23.0227L123.659 23.4309C123.806 23.9214 123.889 24.4292 123.904 24.9412C123.948 25.4344 123.906 25.9316 123.781 26.4108C123.603 27.2535 123.271 28.0561 122.802 28.7785C122.468 29.2652 122.085 29.7165 121.66 30.1255C121.333 30.4115 121.129 30.5743 121.129 30.5743C121.026 30.6514 120.897 30.6852 120.769 30.6685C120.641 30.6517 120.525 30.5858 120.446 30.4847C120.366 30.3836 120.329 30.2553 120.342 30.1272C120.355 29.9991 120.418 29.8813 120.517 29.7988C121.05 29.3405 121.493 28.7867 121.823 28.1659C122.185 27.5559 122.408 26.8735 122.477 26.1674C122.517 25.7875 122.517 25.4043 122.477 25.0245C122.431 24.6197 122.335 24.2221 122.191 23.8408L122.11 23.5549L121.987 23.3101C121.901 23.1547 121.806 23.0048 121.702 22.8612C121.483 22.5886 121.222 22.354 120.927 22.1672C120.347 21.8172 119.712 21.5682 119.049 21.431C118.566 21.3288 118.074 21.2741 117.581 21.2676H117.051C116.775 21.2719 116.509 21.167 116.31 20.9759C116.111 20.7849 115.996 20.523 115.989 20.2473C115.983 20.1152 116.004 19.9831 116.05 19.8593C116.097 19.7354 116.168 19.6223 116.26 19.5268C116.351 19.4313 116.461 19.3554 116.583 19.3038C116.705 19.2522 116.836 19.2259 116.968 19.2266Z" fill="#D2E9FF"/>
<path d="M89.8791 24.2165H89.7972C89.6986 24.2298 89.6024 24.2572 89.5117 24.2979C89.1321 24.3982 88.7731 24.564 88.4506 24.7879C88.2329 24.9164 88.0396 25.0823 87.8796 25.2779C87.6708 25.4892 87.5046 25.7387 87.3901 26.0127C87.2505 26.314 87.1411 26.6283 87.0634 26.9511C86.9824 27.2992 86.9412 27.6553 86.9408 28.0126C86.9339 28.3703 86.9752 28.7274 87.0634 29.0741C87.1393 29.4099 87.2777 29.7284 87.4715 30.013C87.8138 30.5355 88.2753 30.9692 88.818 31.2785C89.2129 31.5133 89.6385 31.6921 90.0826 31.8097C90.4089 31.8911 90.6129 31.9323 90.5722 31.9323C90.6657 31.9478 90.7497 31.9985 90.8069 32.074C90.8642 32.1495 90.8902 32.2441 90.8798 32.3383C90.8694 32.4325 90.8232 32.5191 90.7508 32.5803C90.6784 32.6414 90.5854 32.6725 90.4908 32.6671C90.2845 32.6603 90.0795 32.633 89.8786 32.5857C89.3514 32.4743 88.8332 32.3243 88.328 32.1368C87.6031 31.8061 86.9612 31.3176 86.4494 30.707C86.1781 30.3449 85.9591 29.9465 85.7988 29.5234C85.7173 29.3193 85.6762 29.0334 85.5947 28.8293C85.5342 28.6157 85.4932 28.397 85.4721 28.176C85.4721 28.0533 85.4314 28.0126 85.4314 27.8086V27.4819C85.4246 27.2498 85.4382 27.0175 85.4721 26.7878C85.5041 26.3279 85.6002 25.8746 85.7576 25.4413C85.9005 25.0097 86.1218 24.6083 86.4105 24.2572C86.642 23.9105 86.932 23.6066 87.2675 23.359C87.7295 22.9742 88.2539 22.6711 88.818 22.4627C89.0221 22.3794 89.1854 22.3387 89.3076 22.298C89.3732 22.2744 89.442 22.2605 89.5117 22.2568C89.6457 22.2238 89.7849 22.2177 89.9213 22.2389C90.0577 22.2601 90.1885 22.3082 90.3062 22.3803C90.4239 22.4525 90.526 22.5473 90.6068 22.6592C90.6876 22.7711 90.7453 22.8979 90.7767 23.0323C90.8097 23.1664 90.8158 23.3057 90.7946 23.4421C90.7734 23.5785 90.7254 23.7094 90.6532 23.8271C90.5811 23.9448 90.4863 24.047 90.3744 24.1278C90.2625 24.2086 90.1356 24.2664 90.0012 24.2979C89.9605 24.2165 89.9198 24.2165 89.8791 24.2165Z" fill="#D2E9FF"/>
<path d="M114.901 36.532C114.894 36.7787 114.867 37.0245 114.82 37.2668C114.714 37.8757 114.564 38.4761 114.371 39.0631C114.105 39.9344 113.66 40.7407 113.065 41.4308C112.713 41.8332 112.3 42.1777 111.841 42.4516C111.605 42.5902 111.36 42.713 111.107 42.819L110.699 42.9416L110.331 43.023C109.837 43.1422 109.33 43.1971 108.822 43.1864C108.328 43.1769 107.836 43.1222 107.353 43.023C106.515 42.8059 105.726 42.4319 105.027 41.9208C104.547 41.5637 104.109 41.1527 103.722 40.696C103.554 40.5305 103.415 40.3372 103.313 40.1246C103.242 40.0148 103.216 39.8822 103.238 39.7534C103.261 39.6247 103.332 39.5093 103.436 39.4305C103.546 39.3594 103.678 39.3326 103.807 39.3553C103.936 39.3781 104.051 39.4487 104.13 39.5531C104.586 40.095 105.123 40.5633 105.721 40.9413C106.32 41.3208 106.984 41.584 107.68 41.7168C108.056 41.7914 108.442 41.8052 108.823 41.7575C109.226 41.7271 109.623 41.6448 110.006 41.5127L110.291 41.4313L110.537 41.3064C110.701 41.2354 110.853 41.1389 110.986 41.0204C111.26 40.8078 111.506 40.5619 111.719 40.2884C112.098 39.7298 112.375 39.1076 112.535 38.4514C112.657 37.9691 112.739 37.4775 112.78 36.9818C112.808 36.806 112.808 36.6268 112.78 36.451C112.786 36.1753 112.901 35.9133 113.1 35.722C113.298 35.5307 113.565 35.4257 113.84 35.4298C113.983 35.4301 114.124 35.4592 114.256 35.5152C114.387 35.5713 114.505 35.6531 114.604 35.756C114.703 35.8588 114.781 35.9805 114.832 36.1138C114.883 36.2471 114.906 36.3894 114.901 36.532Z" fill="#D2E9FF"/>
<path d="M82.4878 70.3245L80.7739 65.5465C80.7739 65.5465 84.7316 64.9343 82.6507 59.75C81.4675 56.8533 78.1234 59.1392 78.1234 59.1392C78.1234 59.1392 77.5506 54.9344 73.1848 55.8756C69.7575 56.6081 69.6756 62.1191 71.0221 63.8747C72.3279 65.6302 73.6744 65.4669 73.6744 65.4669C73.6744 65.4669 70.818 65.3854 71.2682 67.998C71.7185 70.6105 73.9613 70.7331 75.6747 69.8757C76.2576 69.5198 76.7471 69.0299 77.1027 68.4468L80.8156 71.5086C80.9848 71.6474 81.1912 71.733 81.409 71.7549C81.6267 71.7767 81.8461 71.7337 82.0395 71.6313C82.2657 71.5106 82.4378 71.3087 82.521 71.0662C82.6042 70.8237 82.5924 70.5586 82.4878 70.3245Z" fill="#D2E9FF"/>
<path d="M123.218 81.0211C123.108 81.6858 122.842 82.3151 122.443 82.8581C121.777 83.5673 120.88 84.016 119.913 84.1236C119.913 84.1236 121.302 84.8991 120.281 86.5728C119.506 87.7976 117.221 87.0628 116.609 86.2868C116.216 85.8139 115.987 85.2268 115.956 84.6132L113.179 86.9809C113.068 87.0787 112.938 87.1533 112.797 87.2001C112.656 87.247 112.508 87.2653 112.36 87.2539C112.212 87.2426 112.068 87.2017 111.936 87.1339C111.804 87.066 111.687 86.9725 111.592 86.8587C111.414 86.6551 111.316 86.3941 111.316 86.1239C111.316 85.8538 111.414 85.5928 111.592 85.3891L111.959 84.981L114.203 82.3278C114.203 82.3278 111.019 81.0211 112.161 78.6533C113.179 76.4896 115.221 77.5104 115.752 78.0819C116.072 78.4952 116.27 78.9903 116.323 79.5107C116.323 79.5107 117.261 75.8775 120.648 76.6937C123.177 77.2652 123.545 79.3474 123.218 81.0211Z" fill="#D2E9FF"/>
<path d="M36.4658 130.914C36.7903 131.357 36.9687 131.89 36.976 132.438C36.9833 132.987 36.8192 133.525 36.5065 133.976L36.2617 134.302C36.1482 134.455 36.0004 134.579 35.8304 134.664C35.6604 134.749 35.4727 134.793 35.2826 134.792C34.9977 134.797 34.7213 134.695 34.5075 134.507L30.5906 131.077C29.9716 132.379 28.9253 133.429 27.626 134.053C26.3267 134.677 24.8528 134.837 23.4499 134.507C19.8185 133.772 18.8796 130.669 19.2877 128.097C19.4017 126.956 19.8567 125.876 20.5935 124.997C21.068 124.515 21.6435 124.144 22.2784 123.912C22.9134 123.679 23.5921 123.589 24.2657 123.65C23.4977 123.423 22.803 122.999 22.2515 122.418C21.6999 121.838 21.311 121.122 21.1238 120.344C20.7534 119.105 20.8256 117.777 21.3279 116.586C22.1034 114.912 23.8576 113.851 26.3465 114.136C30.4675 114.667 30.549 120.505 30.549 120.505C30.549 120.505 31.9774 116.545 35.8943 118.259C39.3217 119.77 38.3426 124.342 36.0169 126.138C35.3452 126.677 34.5663 127.067 33.732 127.281L36.4658 130.914Z" fill="#E1ECFF"/>
<path d="M27.6193 124.404C27.6193 124.404 25.9465 124.078 24.3141 123.629C23.54 123.405 22.8385 122.982 22.2798 122.402C21.7212 121.821 21.3251 121.104 21.1315 120.322C20.7616 119.084 20.8338 117.757 21.3355 116.566C21.5803 117.995 22.2332 120.24 23.8245 121.71C26.3135 123.996 27.6193 124.404 27.6193 124.404Z" fill="#C5DFFF"/>
<path d="M36.2617 134.24C36.1482 134.393 36.0005 134.517 35.8304 134.602C35.6604 134.687 35.4728 134.731 35.2826 134.73C34.9977 134.735 34.7213 134.633 34.5076 134.444L30.5902 131.015C29.9712 132.317 28.925 133.367 27.6258 133.991C26.3266 134.615 24.8528 134.775 23.4499 134.444C19.8185 133.709 18.8796 130.607 19.2877 128.035C19.8592 129.26 21.1238 130.648 24.0209 131.135C29.8151 132.158 29.978 128.525 29.978 128.525L36.2617 134.24Z" fill="#C5DFFF"/>
<path d="M51.8082 121.92C50.3635 121.885 48.9824 121.318 47.9301 120.327C46.3388 118.858 45.524 116.533 45.4819 113.47C45.4004 106.244 44.0132 105.264 42.5034 104.817C40.3818 104.204 38.0969 105.021 38.0969 105.021C37.7069 105.172 37.2728 105.162 36.8901 104.993C36.5074 104.825 36.2073 104.511 36.056 104.121C35.9047 103.731 35.9145 103.297 36.0832 102.914C36.252 102.531 36.5658 102.231 36.9558 102.08C37.0784 102.039 40.1796 100.856 43.3622 101.753C47.6058 102.978 48.5446 107.101 48.5849 113.388C48.6256 115.511 49.1152 117.102 49.973 117.96C50.4463 118.418 51.0671 118.693 51.7244 118.736C52.1413 118.714 52.5496 118.859 52.8597 119.138C53.1697 119.418 53.3561 119.809 53.3777 120.226C53.3994 120.643 53.2546 121.051 52.9752 121.361C52.6958 121.671 52.3046 121.857 51.8878 121.879C51.9304 121.92 51.8896 121.92 51.8082 121.92Z" fill="#FF97C9"/>
<path d="M50.5383 99.9704C49.5054 100.977 48.8806 102.33 48.7837 103.769C48.661 105.933 49.6406 108.178 51.7215 110.463C56.5768 115.77 56.2913 117.444 55.4755 118.792C54.6491 120.039 53.49 121.029 52.1296 121.65C51.7648 121.82 51.4794 122.124 51.3326 122.498C51.1857 122.873 51.1887 123.289 51.3409 123.662C51.4931 124.034 51.7829 124.334 52.15 124.498C52.5172 124.663 52.9336 124.679 53.3128 124.545C55.328 123.683 57.035 122.231 58.2093 120.381C60.4535 116.543 58.2907 112.951 54.0883 108.297C52.6603 106.746 51.9255 105.236 51.9663 104.012C51.98 103.335 52.2582 102.69 52.7413 102.215C52.8952 102.079 53.0205 101.914 53.1101 101.729C53.1996 101.545 53.2516 101.344 53.263 101.139C53.2744 100.934 53.245 100.729 53.1765 100.535C53.108 100.341 53.0018 100.163 52.8639 100.011C52.7307 99.8546 52.5677 99.7261 52.3845 99.6331C52.2012 99.54 52.0013 99.4843 51.7963 99.4691C51.5914 99.4539 51.3854 99.4795 51.1904 99.5445C50.9955 99.6095 50.8153 99.7126 50.6605 99.8477L50.5383 99.9704Z" fill="#99ADF9"/>
<path d="M122.848 109.302C121.094 109.293 119.396 108.689 118.032 107.588C115.379 105.547 113.625 106.935 113.625 106.976C113.47 107.113 113.288 107.216 113.091 107.281C112.894 107.345 112.686 107.368 112.479 107.349C112.273 107.33 112.073 107.269 111.891 107.169C111.709 107.07 111.549 106.935 111.422 106.772C111.285 106.616 111.181 106.434 111.117 106.237C111.053 106.04 111.03 105.832 111.05 105.625C111.069 105.419 111.13 105.218 111.229 105.036C111.329 104.855 111.464 104.695 111.627 104.567C112.892 103.506 116.278 102.239 119.991 105.098C121.991 106.649 124.112 106.241 124.928 105.465C125.704 104.771 126.152 102.771 126.234 101.587C126.246 101.38 126.299 101.178 126.389 100.991C126.48 100.805 126.607 100.639 126.763 100.502C126.918 100.365 127.1 100.261 127.296 100.195C127.493 100.129 127.7 100.102 127.907 100.117C128.322 100.149 128.709 100.341 128.983 100.654C129.258 100.967 129.399 101.375 129.376 101.791C129.335 102.199 129.049 105.996 127.05 107.792C125.885 108.799 124.387 109.337 122.848 109.302Z" fill="#99ADF9"/>
<path d="M122.027 128.744L135.043 143.32C135.043 143.32 131.249 136.788 127.984 132.665C124.557 128.417 122.027 128.744 122.027 128.744Z" fill="#E1ECFF"/>
<path d="M132.259 135.445C132.259 135.445 128.913 131.444 128.424 130.832C127.808 130.007 127.048 129.302 126.18 128.749C126.18 128.749 127.363 128.586 128.913 130.546C130.118 132.116 131.236 133.751 132.259 135.445Z" fill="#E1ECFF"/>
<path d="M112.359 121.843L118.236 111.719L114.726 121.066L119.908 126.209L112.359 121.843Z" fill="#FEC272"/>
<path d="M121.536 116.742L113.09 121.274L115.172 122.049L121.536 116.742Z" fill="#FEC272"/>
<path d="M36.1905 98.9229L33.1306 95.3715C32.9511 95.153 32.8636 94.8734 32.8864 94.5916C32.9092 94.3099 33.0405 94.048 33.2527 93.8612C33.4711 93.6817 33.7506 93.594 34.0324 93.6168C34.3141 93.6396 34.576 93.7711 34.7626 93.9833C34.8308 94.0549 34.8861 94.1377 34.9259 94.2281L36.8846 98.4736C36.9271 98.5711 36.9294 98.6814 36.8913 98.7807C36.8531 98.88 36.7774 98.9603 36.6806 99.0043C36.6437 99.0329 36.6013 99.0535 36.5561 99.0649C36.5109 99.0763 36.4638 99.0782 36.4178 99.0705C36.3718 99.0629 36.3279 99.0458 36.2888 99.0204C36.2496 98.995 36.2162 98.9618 36.1905 98.9229Z" fill="#FEC272"/>
<path d="M33.3686 102.795L27.6156 103.367C27.3399 103.393 27.0653 103.308 26.8514 103.132C26.6375 102.957 26.5016 102.704 26.4732 102.428C26.4478 102.152 26.5321 101.878 26.7077 101.664C26.8834 101.45 27.1363 101.314 27.4116 101.285H27.6564L33.3686 101.979C33.4742 101.996 33.5698 102.051 33.6375 102.134C33.7052 102.217 33.7402 102.321 33.736 102.428C33.6953 102.632 33.5727 102.795 33.3686 102.795Z" fill="#FEC272"/>
<path d="M35.8996 107.57L33.0844 111.081C32.9993 111.19 32.8934 111.281 32.7728 111.349C32.6522 111.417 32.5193 111.46 32.3819 111.476C32.2444 111.492 32.1052 111.481 31.9721 111.443C31.8391 111.404 31.715 111.34 31.6069 111.254C31.4989 111.167 31.4091 111.06 31.3428 110.939C31.2764 110.817 31.2349 110.684 31.2205 110.546C31.2061 110.409 31.2192 110.27 31.259 110.137C31.2988 110.005 31.3646 109.881 31.4524 109.774C31.4985 109.687 31.5696 109.616 31.6564 109.57L35.3286 106.958C35.4247 106.9 35.5377 106.876 35.649 106.891C35.7602 106.906 35.8632 106.958 35.9408 107.039C35.9941 107.12 36.0189 107.215 36.0115 107.312C36.004 107.408 35.9646 107.499 35.8996 107.57Z" fill="#FEC272"/>
<path d="M52.968 96.8921L55.1308 94.0348C55.2633 93.8653 55.4562 93.7537 55.6691 93.7232C55.8821 93.6928 56.0986 93.7459 56.2733 93.8715C56.4418 94.0043 56.5527 94.1969 56.5831 94.4094C56.6136 94.6218 56.5611 94.8378 56.4366 95.0126C56.3959 95.0533 56.3552 95.1352 56.2733 95.1759L53.416 97.341C53.3505 97.3938 53.2671 97.4191 53.1833 97.4115C53.0995 97.4039 53.022 97.364 52.9671 97.3003C52.9273 97.2396 52.9061 97.1686 52.9063 97.0961C52.9064 97.0235 52.9279 96.9526 52.968 96.8921Z" fill="#FEC272"/>
<path d="M49.6251 95.3839L48.2369 91.1791C48.172 90.9734 48.1915 90.7504 48.291 90.559C48.3905 90.3677 48.562 90.2237 48.7677 90.1588C48.9734 90.0939 49.1964 90.1133 49.3877 90.2129C49.5791 90.3124 49.7231 90.4839 49.788 90.6895C49.788 90.7303 49.8287 90.8122 49.8287 90.8529L50.2387 95.2598C50.2419 95.3405 50.2141 95.4193 50.161 95.48C50.1079 95.5408 50.0335 95.5789 49.9532 95.5865C49.884 95.5924 49.8147 95.5758 49.7557 95.5393C49.6966 95.5028 49.6508 95.4483 49.6251 95.3839Z" fill="#FEC272"/>
<path d="M46.4694 98.0097L43.3682 96.4587C43.1733 96.3612 43.0251 96.1904 42.9562 95.9837C42.8873 95.777 42.9034 95.5514 43.0008 95.3565C43.0982 95.1616 43.2691 95.0134 43.4758 94.9445C43.6825 94.8756 43.9081 94.8916 44.103 94.9891C44.1844 95.0298 44.2256 95.0705 44.3071 95.1117L46.8775 97.4383C46.9431 97.5008 46.9834 97.5852 46.9909 97.6755C46.9984 97.7658 46.9726 97.8558 46.9182 97.9283C46.7539 98.0509 46.592 98.0916 46.4694 98.0097Z" fill="#FEC272"/>
<path d="M128.752 92.7154L128.017 96.9201C128.009 96.9751 127.99 97.0279 127.961 97.0749C127.931 97.1219 127.892 97.1621 127.846 97.193C127.799 97.2238 127.747 97.2446 127.692 97.2538C127.638 97.2631 127.582 97.2607 127.528 97.2468C127.438 97.227 127.355 97.1819 127.29 97.1168C127.225 97.0517 127.18 96.9693 127.16 96.8794L126.63 92.6339C126.612 92.4943 126.622 92.3525 126.66 92.2168C126.698 92.0812 126.762 91.9545 126.85 91.8441C126.937 91.7338 127.046 91.6421 127.169 91.5744C127.293 91.5067 127.428 91.4643 127.568 91.4498C127.708 91.4321 127.85 91.4424 127.985 91.4803C128.121 91.5181 128.248 91.5827 128.358 91.6702C128.468 91.7578 128.56 91.8665 128.627 91.9899C128.695 92.1134 128.737 92.2491 128.752 92.3892C128.792 92.4941 128.792 92.6105 128.752 92.7154Z" fill="#FEC272"/>
<path d="M136.142 96.7207L131.858 99.5373C131.793 99.5807 131.721 99.6109 131.645 99.6262C131.57 99.6415 131.491 99.6415 131.415 99.6263C131.34 99.6111 131.267 99.581 131.203 99.5377C131.139 99.4943 131.084 99.4387 131.042 99.3739C130.964 99.255 130.93 99.1129 130.945 98.9717C130.96 98.8305 131.023 98.6987 131.123 98.5984L134.877 95.0877C135.078 94.9006 135.344 94.8005 135.619 94.8091C135.893 94.8177 136.153 94.9345 136.341 95.1339C136.53 95.3332 136.632 95.5991 136.625 95.8734C136.618 96.1477 136.503 96.4082 136.305 96.5981C136.244 96.6286 136.188 96.6702 136.142 96.7207Z" fill="#FEC272"/>
<path d="M135.444 105.629L131.772 103.873C131.648 103.813 131.553 103.706 131.507 103.577C131.461 103.447 131.467 103.304 131.526 103.179C131.57 103.079 131.647 102.997 131.743 102.945C131.839 102.894 131.95 102.875 132.058 102.894L136.057 103.588C136.195 103.609 136.327 103.658 136.445 103.732C136.564 103.806 136.666 103.903 136.746 104.017C136.826 104.132 136.882 104.261 136.911 104.398C136.94 104.534 136.941 104.675 136.914 104.812C136.892 104.95 136.843 105.082 136.769 105.201C136.696 105.319 136.599 105.422 136.484 105.502C136.37 105.582 136.241 105.638 136.104 105.667C135.968 105.695 135.827 105.696 135.69 105.669C135.648 105.708 135.567 105.669 135.444 105.629Z" fill="#FEC272"/>
<path d="M77.9653 85.6581C77.9653 85.6581 60.7873 106.233 60.1344 105.702C59.971 105.579 59.6855 104.64 59.3181 103.13C58.339 98.8438 56.9925 89.8628 56.8282 80.3104C56.6256 67.4514 56.9518 63.5327 60.3791 61.9409C62.9088 60.7568 69.8048 72.1462 74.3339 79.7797C75.9659 82.3927 77.2305 84.5559 77.9653 85.6581Z" fill="#FF97C9"/>
<path d="M77.9523 85.6383C77.9523 85.6383 60.7734 106.215 60.1209 105.684C59.9576 105.561 59.6721 104.622 59.3047 103.112C60.9774 98.8258 63.0176 94.2944 65.2618 90.867C67.8694 86.8476 70.9067 83.124 74.32 79.7617C75.952 82.3742 77.2171 84.5379 77.9523 85.6383Z" fill="#FC75BC"/>
<path d="M137.46 156.426C136.399 158.631 126.566 155.569 118.528 152.793C116.977 152.262 115.468 151.731 114.08 151.242C112.525 150.696 111.178 149.68 110.228 148.334C109.277 146.988 108.769 145.379 108.776 143.731C108.817 135.852 108.082 123.319 109.592 122.666C111.387 121.85 120.28 130.625 128.402 140.056C136.807 149.813 139.051 153.038 137.46 156.426Z" fill="#FF97C9"/>
<path d="M118.527 152.834C116.977 152.303 115.467 151.772 114.079 151.283C112.524 150.737 111.178 149.721 110.227 148.374C109.277 147.028 108.769 145.419 108.776 143.771C108.817 135.895 108.082 123.36 109.592 122.707C109.632 122.707 112.978 133.076 115.263 141.24C116.569 145.975 117.671 149.853 118.527 152.834Z" fill="#FC75BC"/>
<path d="M112.677 102.231C112.392 113.375 110.76 131.908 104.109 150.278C98.3557 166.199 93.3778 176.772 90.0725 183.018C88.7629 185.569 87.3192 188.049 85.7475 190.447C85.7475 190.447 81.4224 192.611 73.0985 193.264C67.222 193.686 61.3158 193.384 55.5128 192.366C35.7667 189.059 33.6854 182.854 33.6854 182.854C33.6854 182.854 33.3999 179.301 34.3387 172.322C35.5219 163.341 38.7864 148.727 47.3139 128.765C56.9024 106.435 67.8374 93.291 74.6103 86.6371C78.6091 82.7183 81.1809 81.0446 81.1809 81.0446C81.1809 81.0446 86.4841 78.8809 97.4599 82.3097C101.026 83.3548 104.401 84.9676 107.455 87.0859C111.045 89.5763 112.514 91.7802 112.514 91.7802C112.762 95.258 112.817 98.7469 112.677 102.231Z" fill="#E1ECFF"/>
<path d="M112.676 102.219C112.391 113.364 110.758 131.897 104.107 150.267C98.3543 166.187 93.3764 176.76 90.0712 183.006C88.7616 185.557 87.3179 188.037 85.7461 190.435C85.7461 190.435 81.4215 192.599 73.0977 193.252C78.4018 185.988 86.2769 173.372 94.1107 154.267C106.841 123.242 107.617 95.9733 107.494 87.0742C111.087 89.5646 112.554 91.7685 112.554 91.7685C112.772 95.2477 112.813 98.7357 112.676 102.219Z" fill="#C5DFFF"/>
<path d="M38.9953 170.571C38.885 170.578 38.7744 170.564 38.6691 170.531C38.1185 170.441 37.6255 170.138 37.297 169.687C36.9685 169.236 36.8311 168.674 36.9144 168.122C37.0371 167.428 39.6482 150.61 46.8703 133.669C54.092 116.768 59.8048 108.481 60.0496 108.113C60.3725 107.658 60.861 107.348 61.4102 107.249C61.9595 107.15 62.5256 107.27 62.9874 107.583C63.4424 107.907 63.7527 108.395 63.8518 108.945C63.9509 109.494 63.831 110.06 63.5177 110.522C63.4769 110.604 57.7646 118.851 50.7466 135.302C43.7285 151.752 41.0757 168.571 41.0757 168.735C40.9987 169.236 40.7483 169.694 40.3681 170.03C39.988 170.366 39.5022 170.557 38.9953 170.571Z" fill="#F8FBFF"/>
<path d="M112.689 102.232C110.955 100.706 109.129 99.2886 107.221 97.9869C106.323 97.3747 105.344 96.7214 104.283 96.0685C103.712 95.7418 103.141 95.3744 102.529 95.0477C99.9257 93.5598 97.2109 92.2768 94.4088 91.2104C94.164 91.1289 93.96 91.047 93.7147 90.9656C93.2659 90.8022 92.8578 90.6389 92.4496 90.5167C89.5008 89.4587 86.4886 88.5862 83.4308 87.9042C82.6964 87.7409 81.9621 87.6183 81.3092 87.4554C79.1259 87.048 76.9175 86.789 74.6992 86.6803C78.6981 82.7606 81.2699 81.087 81.2699 81.087C81.2699 81.087 82.9005 80.4336 86.2464 80.4336C86.9809 80.4336 87.797 80.4745 88.6947 80.5562C91.3075 80.7902 93.8906 81.2825 96.4064 82.0258C96.7738 82.1484 97.1814 82.2299 97.5488 82.3525C97.8403 82.4293 98.1266 82.5249 98.4058 82.6385C100.508 83.3549 102.554 84.2281 104.526 85.2505C105.184 85.5983 105.823 85.9798 106.442 86.3934C106.85 86.6382 107.176 86.8835 107.544 87.1282C111.134 89.6186 112.603 91.8225 112.603 91.8225C112.603 91.8225 112.89 95.7825 112.689 102.232Z" fill="#1C3177"/>
<path d="M112.686 102.233C110.953 100.707 109.127 99.2893 107.219 97.9876C107.545 93.2114 107.545 89.4966 107.545 87.1289C111.136 89.6193 112.605 91.8232 112.605 91.8232C112.605 91.8232 112.89 95.7818 112.686 102.233Z" fill="#142966"/>
<path d="M106.495 86.3678L104.618 95.5528C104.582 95.7554 104.482 95.9412 104.333 96.0836C103.761 95.7569 103.19 95.3895 102.578 95.0628L104.578 85.2656C105.271 85.633 105.924 86.0004 106.495 86.3678Z" fill="#142966"/>
<path d="M98.4341 82.6278L94.4357 91.2006C94.1909 91.1192 93.9869 91.0373 93.7416 90.9559C93.2928 90.7925 92.8847 90.6292 92.4766 90.507L96.394 82.0156C96.7614 82.1382 97.169 82.2197 97.5364 82.3423C97.8631 82.4645 98.1486 82.5464 98.4341 82.6278Z" fill="#142966"/>
<path d="M88.7366 80.5071L88.6163 80.7519L83.4731 87.8551C82.7397 87.6918 82.0045 87.5691 81.3516 87.4058C81.3838 87.2293 81.4533 87.0618 81.5556 86.9144L86.2888 80.3438C87.0231 80.3845 87.8394 80.4252 88.7366 80.5071Z" fill="#142966"/>
<path d="M59.1696 177.774C68.7619 181.065 80.2387 172.946 84.8036 159.639C89.3685 146.333 85.2929 132.878 75.7006 129.587C66.1082 126.297 54.6314 134.416 50.0665 147.722C45.5016 161.029 49.5772 174.484 59.1696 177.774Z" fill="#C5DFFF"/>
<path d="M60.4799 176.75C70.0722 180.041 81.5075 172.042 86.0212 158.885C90.535 145.728 86.4179 132.394 76.8256 129.103C67.2332 125.812 55.7979 133.811 51.2842 146.968C46.7704 160.125 50.8875 173.459 60.4799 176.75Z" fill="#1C3177"/>
<path d="M61.4306 172.203C69.0406 174.813 78.169 168.304 81.8195 157.663C85.47 147.022 82.2602 136.279 74.6502 133.668C67.0402 131.058 57.9118 137.568 54.2613 148.209C50.6108 158.85 53.8206 169.592 61.4306 172.203Z" fill="#99ADF9"/>
<path d="M65.2932 146.718C67.4675 147.463 70.0782 145.596 71.1243 142.547C72.1704 139.497 71.2558 136.421 69.0815 135.675C66.9072 134.929 64.2965 136.796 63.2504 139.846C62.2043 142.895 63.1189 145.972 65.2932 146.718Z" fill="#C5DFFF"/>
<path d="M60.3006 160.133C61.473 160.535 62.8741 159.547 63.4302 157.926C63.9862 156.306 63.4865 154.666 62.3142 154.263C61.1418 153.861 59.7407 154.849 59.1846 156.47C58.6286 158.091 59.1283 159.731 60.3006 160.133Z" fill="#C5DFFF"/>
<path d="M81.8361 157.646C78.1639 168.3 69.065 174.791 61.4347 172.178C57.4359 170.79 54.6207 167.157 53.4375 162.461C54.4198 163.136 55.4908 163.672 56.6201 164.053C66.0864 167.319 77.4703 159.195 81.9994 145.929C82.2851 145.113 82.5298 144.297 82.7338 143.48C83.7818 148.192 83.4705 153.104 81.8361 157.646Z" fill="#7C99F2"/>
<path d="M90.1095 183.09C88.7999 185.641 87.3562 188.121 85.7845 190.519C85.7845 190.519 81.4594 192.683 73.1355 193.336C67.259 193.758 61.3528 193.456 55.5498 192.438C48.2462 191.213 43.3909 189.58 40.1269 188.029C34.5775 185.376 33.7205 182.927 33.7205 182.927C33.7205 182.927 33.435 179.375 34.3739 172.395C36.4985 174.361 38.8551 176.061 41.3915 177.456C46.0432 180.029 52.3672 182.436 60.9766 183.702C66.9744 184.568 73.0466 184.801 79.0931 184.396C82.789 184.193 86.4685 183.757 90.1095 183.09Z" fill="#FF97C9"/>
<path d="M90.1068 183.043C88.7972 185.594 87.3535 188.074 85.7817 190.472C85.7817 190.472 81.4567 192.636 73.1328 193.289C74.8874 190.881 76.8869 187.942 79.0899 184.349C82.786 184.146 86.4656 183.71 90.1068 183.043V183.043Z" fill="#FC75BC"/>
<path d="M41.3915 177.527L40.1269 188.1C34.5775 185.446 33.7205 182.997 33.7205 182.997C33.7205 182.997 33.435 179.445 34.3739 172.465C36.509 174.418 38.864 176.117 41.3915 177.527Z" fill="#FCB6DA"/>
</g>
<defs>
<clipPath id="clip0_7875_75041">
<rect width="137.89" height="211" fill="white"/>
</clipPath>
</defs>
</svg>
