<svg width="24" height="24" viewBox="0 0 24 24" fill="none" xmlns="http://www.w3.org/2000/svg">
<path fill-rule="evenodd" clip-rule="evenodd" d="M4.03786 10.4906C3.60204 11.1428 3.42857 11.6708 3.42857 12.0022C3.42857 12.3336 3.60204 12.8617 4.03786 13.5138C4.46162 14.148 5.08878 14.8316 5.87913 15.4615C7.46369 16.7245 9.63277 17.7165 12 17.7165C14.3672 17.7165 16.5363 16.7245 18.1209 15.4615C18.9112 14.8316 19.5384 14.148 19.9621 13.5138C20.398 12.8617 20.5714 12.3336 20.5714 12.0022C20.5714 11.6708 20.398 11.1428 19.9621 10.4906C19.5384 9.85649 18.9112 9.17287 18.1209 8.54295C16.5363 7.28001 14.3672 6.28795 12 6.28795C9.63277 6.28795 7.46369 7.28001 5.87913 8.54295C5.08878 9.17287 4.46162 9.85649 4.03786 10.4906ZM4.98873 7.4258C6.76488 6.01017 9.23866 4.85938 12 4.85938C14.7613 4.85938 17.2351 6.01017 19.0113 7.4258C19.9013 8.13516 20.6339 8.92476 21.1499 9.69688C21.6538 10.451 22 11.2622 22 12.0022C22 12.7423 21.6538 13.5535 21.1499 14.3076C20.6339 15.0797 19.9013 15.8693 19.0113 16.5787C17.2351 17.9943 14.7613 19.1451 12 19.1451C9.23866 19.1451 6.76488 17.9943 4.98873 16.5787C4.09872 15.8693 3.36606 15.0797 2.85009 14.3076C2.34617 13.5535 2 12.7423 2 12.0022C2 11.2622 2.34617 10.451 2.85009 9.69688C3.36606 8.92476 4.09872 8.13516 4.98873 7.4258Z"/>
<path fill-rule="evenodd" clip-rule="evenodd" d="M12.001 9.14732C11.2433 9.14732 10.5166 9.44834 9.98074 9.98416C9.44492 10.52 9.1439 11.2467 9.1439 12.0045C9.1439 12.7622 9.44492 13.489 9.98074 14.0248C10.5166 14.5606 11.2433 14.8616 12.001 14.8616C12.7588 14.8616 13.4855 14.5606 14.0214 14.0248C14.5572 13.489 14.8582 12.7622 14.8582 12.0045C14.8582 11.2467 14.5572 10.52 14.0214 9.98416C13.4855 9.44834 12.7588 9.14732 12.001 9.14732ZM8.97059 8.97401C9.77432 8.17028 10.8644 7.71875 12.001 7.71875C13.1377 7.71875 14.2278 8.17028 15.0315 8.97401C15.8352 9.77773 16.2868 10.8678 16.2868 12.0045C16.2868 13.1411 15.8352 14.2312 15.0315 15.0349C14.2278 15.8386 13.1377 16.2902 12.001 16.2902C10.8644 16.2902 9.77432 15.8386 8.97059 15.0349C8.16686 14.2312 7.71533 13.1411 7.71533 12.0045C7.71533 10.8678 8.16686 9.77773 8.97059 8.97401Z"/>
</svg>
