<svg width="24" height="24" viewBox="0 0 24 24" fill="none" xmlns="http://www.w3.org/2000/svg">
  <path fill-rule="evenodd" clip-rule="evenodd" d="M19.96 13.513c0.44-0.652 0.61-1.189 0.61-1.517 0-0.332-0.17-0.864-0.61-1.517 -0.42-0.635-1.05-1.319-1.84-1.948 -1.58-1.263-3.75-2.256-6.12-2.256 -2.37 0-4.54 0.993-6.12 2.256 -0.79 0.629-1.42 1.313-1.84 1.948 -0.44 0.653-0.61 1.185-0.61 1.517 0-0.34 0.17 0.96 0.23 1.05L1.87 14.86c-0.26 0.27-0.26 0.71 0 0.98 0.14 0.14 0.32 0.21 0.49 0.21 0.18 0 0.36-0.07 0.49-0.21L14.71 4.13c0.26-0.27 0.26-0.71 0-0.98C14.45 2.89 14.01 2.89 13.75 3.15L3.69 13.06C4.46 14.15 5.09 14.832 5.88 15.462 7.46 16.725 9.63 17.717 12 17.717s4.54-0.992 6.12-2.255c0.79-0.63 1.42-1.314 1.84-1.949z M12 7.719c1.14 0 2.23 0.45 3.03 1.255 0.8 0.804 1.25 1.894 1.25 3.03 0 1.137-0.45 2.227-1.25 3.03 -0.8 0.804-1.89 1.255-3.03 1.255s-2.23-0.451-3.03-1.255l4.03-4.03C13.29 8.281 13.68 8.169 14.08 8.169V7.719h-2.08L12 7.719z" />
</svg>
