<svg width="24" height="24" viewBox="0 0 24 24" fill="none" xmlns="http://www.w3.org/2000/svg">
<path d="M12 22C13.3135 22.0017 14.6143 21.7438 15.8278 21.2411C17.0413 20.7385 18.1435 20.001 19.071 19.071C20.001 18.1435 20.7385 17.0413 21.2411 15.8278C21.7438 14.6143 22.0017 13.3135 22 12C22.0017 10.6865 21.7438 9.38569 21.2411 8.17222C20.7385 6.95874 20.001 5.85656 19.071 4.92901C18.1435 3.99902 17.0413 3.26151 15.8278 2.75885C14.6143 2.25619 13.3135 1.99831 12 2.00001C10.6865 1.99833 9.38569 2.25623 8.17222 2.75889C6.95874 3.26154 5.85656 3.99904 4.92901 4.92901C3.99904 5.85656 3.26154 6.95874 2.75889 8.17222C2.25623 9.38569 1.99833 10.6865 2.00001 12C1.99831 13.3135 2.25619 14.6143 2.75885 15.8278C3.26151 17.0413 3.99902 18.1435 4.92901 19.071C5.85656 20.001 6.95874 20.7385 8.17222 21.2411C9.38569 21.7438 10.6865 22.0017 12 22Z" fill="#27AE60"/>
<path d="M10.9274 14.0425L15.5579 9.15164C15.7508 8.94945 16.063 8.94945 16.2559 9.15164C16.4483 9.35406 16.4483 9.68179 16.2559 9.88397L11.342 15.0736C11.3248 15.1 11.3058 15.1254 11.2836 15.1487C11.0907 15.3506 10.7785 15.3506 10.5859 15.1487L8.14446 12.5858C7.95185 12.3837 7.95185 12.0559 8.14446 11.8538C8.33733 11.6516 8.64956 11.6516 8.84218 11.8538L10.9274 14.0425Z" fill="white"/>
</svg>
