<svg width="15" height="15" viewBox="0 0 15 15" fill="none" xmlns="http://www.w3.org/2000/svg">
<path d="M12.4159 2.38596C12.2465 2.21654 12.0453 2.08214 11.8238 1.99045C11.6024 1.89876 11.3651 1.85156 11.1254 1.85156C10.8857 1.85156 10.6484 1.89876 10.4269 1.99045C10.2055 2.08214 10.0043 2.21654 9.83485 2.38596L2.9721 9.2466C2.76788 9.45074 2.61936 9.70406 2.54138 9.98244L1.82336 12.5458C1.80677 12.6053 1.80628 12.668 1.82195 12.7277C1.83761 12.7874 1.86886 12.8418 1.9125 12.8854C1.95614 12.9291 2.0106 12.9603 2.0703 12.976C2.12999 12.9916 2.19278 12.9911 2.25222 12.9745L4.81612 12.2568C5.09458 12.1789 5.34826 12.0306 5.55271 11.8262L12.4159 4.9656C12.7581 4.62349 12.9503 4.15954 12.9503 3.67578C12.9503 3.19202 12.7581 2.72807 12.4159 2.38596ZM10.3273 2.87776C10.539 2.66618 10.8262 2.54733 11.1256 2.54738C11.4249 2.54742 11.712 2.66635 11.9237 2.878C12.1354 3.08964 12.2543 3.37667 12.2542 3.67595C12.2542 3.97522 12.1352 4.26221 11.9235 4.4738L11.2087 5.18784L9.61253 3.5918L10.3273 2.87776ZM9.12054 4.08407L10.7172 5.68011L5.06026 11.3344C4.94044 11.4542 4.79179 11.5411 4.62861 11.5868L2.6602 12.1376L3.21113 10.1703C3.25691 10.0073 3.34386 9.85868 3.46362 9.73886L9.12054 4.08407Z" fill="white"/>
</svg>
