<svg width="288" height="40" viewBox="0 0 288 40" fill="none" xmlns="http://www.w3.org/2000/svg">
<path opacity="0.8" d="M7.57609 30.1474V33.9624H7.07841V30.1474H7.57609ZM8.80273 30.1474V30.5618H5.85547V30.1474H8.80273ZM17.2708 31.9346V32.1752C17.2708 32.4619 17.2356 32.7191 17.1635 32.9448C17.0913 33.1724 16.9896 33.3648 16.8545 33.5239C16.7195 33.683 16.5585 33.8033 16.3698 33.8884C16.1829 33.9716 15.9739 34.0142 15.7407 34.0142C15.5076 34.0142 15.3078 33.9716 15.1191 33.8884C14.9322 33.8051 14.7694 33.683 14.6325 33.5239C14.4956 33.3648 14.3901 33.1724 14.3161 32.9448C14.2403 32.7172 14.2033 32.4619 14.2033 32.1752V31.9346C14.2033 31.6479 14.2403 31.3925 14.3143 31.1668C14.3901 30.9393 14.4956 30.7468 14.6307 30.5877C14.7676 30.4268 14.9285 30.3047 15.1154 30.2214C15.3041 30.1382 15.5113 30.0956 15.737 30.0956C15.9628 30.0956 16.1792 30.1382 16.3661 30.2214C16.5548 30.3047 16.7158 30.4268 16.8508 30.5877C16.9877 30.7468 17.0913 30.9393 17.1616 31.1668C17.2356 31.3925 17.2726 31.6479 17.2726 31.9346H17.2708ZM16.7694 32.1752V31.9291C16.7694 31.7015 16.7454 31.5017 16.6991 31.3259C16.6529 31.152 16.5862 31.004 16.4974 30.8856C16.4086 30.7672 16.2995 30.6765 16.17 30.6155C16.0423 30.5544 15.898 30.523 15.7352 30.523C15.5724 30.523 15.4355 30.5544 15.3078 30.6155C15.182 30.6765 15.0728 30.7672 14.9822 30.8856C14.8934 31.004 14.8249 31.1502 14.775 31.3259C14.7269 31.4999 14.701 31.7015 14.701 31.9291V32.1752C14.701 32.4046 14.725 32.6062 14.775 32.7838C14.8231 32.9578 14.8934 33.1058 14.984 33.226C15.0765 33.3444 15.1857 33.4351 15.3115 33.4961C15.4392 33.5572 15.5816 33.5887 15.7389 33.5887C15.8961 33.5887 16.0497 33.5572 16.1755 33.4961C16.3032 33.4351 16.4105 33.3444 16.4974 33.226C16.5862 33.1058 16.6547 32.9578 16.6991 32.7838C16.7454 32.6081 16.7676 32.4046 16.7676 32.1752H16.7694ZM25.8832 32.0623V33.4591C25.8369 33.5294 25.7611 33.6072 25.6575 33.6941C25.5538 33.7792 25.4114 33.8551 25.2301 33.9198C25.0506 33.9827 24.8175 34.0142 24.5326 34.0142C24.2995 34.0142 24.0867 33.9735 23.8906 33.8939C23.6963 33.8125 23.528 33.6923 23.3855 33.5369C23.2449 33.3796 23.1339 33.189 23.0562 32.9652C22.9785 32.7394 22.9415 32.4841 22.9415 32.1992V31.9032C22.9415 31.6183 22.9748 31.3648 23.0414 31.1409C23.1098 30.9171 23.2097 30.7284 23.3392 30.5729C23.4706 30.4157 23.6316 30.2973 23.8221 30.2159C24.0127 30.1345 24.231 30.0938 24.4771 30.0938C24.7694 30.0938 25.0118 30.1437 25.2079 30.2455C25.4058 30.3454 25.5594 30.4823 25.6686 30.6599C25.7796 30.8357 25.8517 31.0373 25.8832 31.263H25.3781C25.3559 31.1243 25.3096 31.0003 25.2412 30.8856C25.1746 30.7727 25.0802 30.6802 24.9563 30.6136C24.8323 30.5433 24.6732 30.5082 24.4771 30.5082C24.3013 30.5082 24.1477 30.5396 24.0182 30.6044C23.8887 30.6691 23.7833 30.7617 23.6982 30.8819C23.6149 31.0022 23.552 31.1483 23.5094 31.3204C23.4687 31.4906 23.4502 31.6849 23.4502 31.8995V32.2011C23.4502 32.4212 23.4761 32.6173 23.5261 32.7912C23.5779 32.9633 23.6519 33.1113 23.7481 33.2334C23.8443 33.3537 23.959 33.4462 24.0922 33.5091C24.2273 33.572 24.3753 33.6035 24.5381 33.6035C24.7176 33.6035 24.8637 33.5887 24.9748 33.5591C25.0858 33.5276 25.1746 33.4906 25.2375 33.4499C25.3004 33.4055 25.3485 33.3648 25.3818 33.3259V32.4712H24.4993V32.0623H25.885H25.8832ZM34.1829 33.5498V33.9605H32.1625V33.5498H34.1829ZM32.2661 30.1474V33.9624H31.761V30.1474H32.2661ZM33.9165 31.7866V32.1974H32.1644V31.7866H33.9165ZM34.157 30.1474V30.5618H32.1625V30.1474H34.157ZM41.3096 30.1474V33.9624H40.8119V30.1474H41.3096ZM42.5362 30.1474V30.5618H39.589V30.1474H42.5362ZM50.6324 31.7866V32.1974H48.5677V31.7866H50.6324ZM48.6472 30.1474V33.9624H48.1421V30.1474H48.6472ZM51.0728 30.1474V33.9624H50.5695V30.1474H51.0728ZM59.4335 33.5498V33.9605H57.4132V33.5498H59.4335ZM57.5168 30.1474V33.9624H57.0117V30.1474H57.5168ZM59.1671 31.7866V32.1974H57.415V31.7866H59.1671ZM59.4076 30.1474V30.5618H57.4132V30.1474H59.4076ZM65.0986 30.1474H66.3623C66.649 30.1474 66.8895 30.1918 67.0875 30.2788C67.2873 30.3657 67.4372 30.4952 67.5408 30.6673C67.6463 30.8375 67.6981 31.0447 67.6981 31.2926C67.6981 31.4666 67.6629 31.6275 67.5907 31.7718C67.5204 31.9143 67.4205 32.0364 67.2873 32.1382C67.156 32.2381 66.9987 32.3121 66.8155 32.3602L66.6749 32.4157H65.4871L65.4816 32.0049H66.3771C66.5584 32.0049 66.7101 31.9735 66.8303 31.9106C66.9506 31.8458 67.0413 31.7589 67.1023 31.6516C67.1634 31.5424 67.1948 31.424 67.1948 31.2926C67.1948 31.1465 67.1652 31.017 67.1079 30.9078C67.0505 30.7987 66.9599 30.7135 66.8359 30.6543C66.7138 30.5933 66.5565 30.5618 66.3623 30.5618H65.6055V33.9624H65.1005V30.1474H65.0986ZM67.328 33.9624L66.4011 32.2325H66.9284L67.8683 33.9309V33.9624H67.328ZM80.8155 32.8098L81.5722 30.1474H81.9385L81.7258 31.1816L80.9117 33.9605H80.5472L80.8137 32.8079L80.8155 32.8098ZM80.0329 30.1474L80.636 32.7561L80.8174 33.9605H80.4566L79.5315 30.1456H80.0348L80.0329 30.1474ZM82.9191 32.7542L83.5093 30.1474H84.0144L83.093 33.9624H82.7322L82.921 32.7542H82.9191ZM81.994 30.1474L82.7304 32.8098L82.9968 33.9624H82.6323L81.846 31.1835L81.6314 30.1493H81.9922L81.994 30.1474ZM92.0366 33.5498V33.9605H90.0162V33.5498H92.0366ZM90.1198 30.1474V33.9624H89.6148V30.1474H90.1198ZM91.7701 31.7866V32.1974H90.0181V31.7866H91.7701ZM92.0107 30.1474V30.5618H90.0162V30.1474H92.0107ZM106.889 32.0623V33.4591C106.841 33.5294 106.767 33.6072 106.664 33.6941C106.56 33.7792 106.418 33.8551 106.236 33.9198C106.057 33.9827 105.824 34.0142 105.539 34.0142C105.306 34.0142 105.093 33.9735 104.897 33.8939C104.703 33.8125 104.534 33.6923 104.392 33.5369C104.249 33.3796 104.14 33.189 104.062 32.9652C103.985 32.7394 103.948 32.4841 103.948 32.1992V31.9032C103.948 31.6183 103.981 31.3648 104.048 31.1409C104.116 30.9171 104.216 30.7284 104.346 30.5729C104.477 30.4157 104.638 30.2973 104.827 30.2159C105.017 30.1345 105.235 30.0938 105.482 30.0938C105.774 30.0938 106.016 30.1437 106.212 30.2455C106.41 30.3454 106.564 30.4823 106.673 30.6599C106.784 30.8357 106.856 31.0373 106.888 31.263H106.383C106.36 31.1243 106.314 31.0003 106.246 30.8856C106.179 30.7727 106.085 30.6802 105.961 30.6136C105.837 30.5433 105.678 30.5082 105.482 30.5082C105.306 30.5082 105.152 30.5396 105.023 30.6044C104.893 30.6691 104.788 30.7617 104.703 30.8819C104.619 31.0022 104.556 31.1483 104.514 31.3204C104.473 31.4906 104.455 31.6849 104.455 31.8995V32.2011C104.455 32.4212 104.481 32.6173 104.531 32.7912C104.582 32.9633 104.656 33.1113 104.753 33.2334C104.849 33.3537 104.963 33.4462 105.097 33.5091C105.232 33.572 105.38 33.6035 105.543 33.6035C105.722 33.6035 105.868 33.5887 105.979 33.5591C106.09 33.5276 106.179 33.4906 106.242 33.4499C106.305 33.4055 106.353 33.3648 106.386 33.3259V32.4712H105.504V32.0623H106.889ZM112.765 30.1474H114.029C114.316 30.1474 114.556 30.1918 114.754 30.2788C114.954 30.3657 115.104 30.4952 115.208 30.6673C115.313 30.8375 115.365 31.0447 115.365 31.2926C115.365 31.4666 115.33 31.6275 115.258 31.7718C115.187 31.9143 115.086 32.0364 114.954 32.1382C114.823 32.2381 114.666 32.3121 114.482 32.3602L114.342 32.4157H113.154L113.148 32.0049H114.044C114.225 32.0049 114.377 31.9735 114.497 31.9106C114.617 31.8458 114.708 31.7589 114.769 31.6516C114.83 31.5424 114.862 31.424 114.862 31.2926C114.862 31.1465 114.832 31.017 114.775 30.9078C114.717 30.7987 114.627 30.7135 114.503 30.6543C114.381 30.5933 114.222 30.5618 114.029 30.5618H113.272V33.9624H112.767V30.1474H112.765ZM114.995 33.9624L114.068 32.2325H114.595L115.535 33.9309V33.9624H114.995ZM124.046 31.9346V32.1752C124.046 32.4619 124.011 32.7191 123.938 32.9448C123.866 33.1724 123.765 33.3648 123.629 33.5239C123.494 33.683 123.333 33.8033 123.145 33.8884C122.958 33.9716 122.749 34.0142 122.516 34.0142C122.283 34.0142 122.083 33.9716 121.894 33.8884C121.707 33.8051 121.544 33.683 121.407 33.5239C121.271 33.3648 121.165 33.1724 121.091 32.9448C121.015 32.7172 120.978 32.4619 120.978 32.1752V31.9346C120.978 31.6479 121.015 31.3925 121.087 31.1668C121.163 30.9393 121.269 30.7468 121.404 30.5877C121.541 30.4268 121.702 30.3047 121.888 30.2214C122.077 30.1382 122.284 30.0956 122.51 30.0956C122.736 30.0956 122.952 30.1382 123.139 30.2214C123.328 30.3047 123.489 30.4268 123.624 30.5877C123.761 30.7468 123.864 30.9393 123.937 31.1668C124.011 31.3925 124.046 31.6479 124.046 31.9346ZM123.546 32.1752V31.9291C123.546 31.7015 123.522 31.5017 123.476 31.3259C123.431 31.152 123.363 31.004 123.274 30.8856C123.185 30.7672 123.076 30.6765 122.947 30.6155C122.819 30.5544 122.675 30.523 122.512 30.523C122.349 30.523 122.212 30.5544 122.085 30.6155C121.959 30.6765 121.85 30.7672 121.759 30.8856C121.67 31.004 121.602 31.1502 121.552 31.3259C121.504 31.4999 121.478 31.7015 121.478 31.9291V32.1752C121.478 32.4046 121.502 32.6062 121.552 32.7838C121.6 32.9578 121.67 33.1058 121.761 33.226C121.853 33.3444 121.963 33.4351 122.088 33.4961C122.216 33.5572 122.358 33.5887 122.516 33.5887C122.673 33.5887 122.827 33.5572 122.952 33.4961C123.08 33.4351 123.187 33.3444 123.274 33.226C123.363 33.1058 123.431 32.9578 123.476 32.7838C123.52 32.6081 123.544 32.4046 123.544 32.1752H123.546ZM130.845 32.8098L131.602 30.1474H131.968L131.755 31.1816L130.941 33.9605H130.577L130.843 32.8079L130.845 32.8098ZM130.062 30.1474L130.666 32.7561L130.847 33.9605H130.486L129.561 30.1456H130.064L130.062 30.1474ZM132.949 32.7542L133.539 30.1474H134.044L133.123 33.9624H132.762L132.95 32.7542H132.949ZM132.024 30.1474L132.76 32.8098L133.026 33.9624H132.662L131.876 31.1835L131.661 30.1493H132.022L132.024 30.1474Z" fill="#00213D"/>
<path d="M108.577 6.00781V24.1484H106.104V6.00781H108.577ZM113.878 6.00781V24.1484H111.404V6.00781H113.878ZM115.902 19.7266C115.902 16.7238 117.881 15.2215 121.843 15.2215C123.115 15.2215 124.39 15.314 125.663 15.5008V14.1207C125.663 12.437 124.348 11.5971 121.717 11.5971C120.211 11.5971 118.668 11.8302 117.086 12.2946V10.2021C118.666 9.73768 120.211 9.50456 121.717 9.50456C126.068 9.50456 128.244 11.0198 128.244 14.0522V24.1502H126.794L125.902 22.6997C124.442 23.6673 122.853 24.1502 121.132 24.1502C117.645 24.1502 115.902 22.6757 115.902 19.7284V19.7266ZM121.843 17.314C119.602 17.314 118.481 18.104 118.481 19.6859C118.481 21.2677 119.363 22.0577 121.13 22.0577C122.897 22.0577 124.427 21.5841 125.663 20.635V17.5952C124.39 17.4083 123.115 17.3158 121.843 17.3158V17.314ZM130.745 24.1484V9.50456H132.488L132.949 11.3732C134.233 10.1281 135.776 9.50456 137.58 9.50456V11.6526C135.831 11.6526 134.414 12.2705 133.326 13.5083V24.1502H130.745V24.1484Z" fill="#2F80ED"/>
<path d="M89.7896 23.1556C88.4094 23.8901 86.8627 24.2545 85.3012 24.2138C83.7397 24.1731 82.2133 23.731 80.872 22.928C79.5306 22.125 78.4206 20.9872 77.6491 19.6292C76.8775 18.2694 76.4687 16.7337 76.4668 15.1722C76.4631 13.6089 76.8646 12.0714 77.6306 10.7097C78.3965 9.34801 79.501 8.20647 80.8387 7.39612C82.1763 6.58761 83.699 6.13618 85.2624 6.08992C86.8239 6.04367 88.3724 6.40074 89.7545 7.1297L88.5926 9.33876C87.5898 8.81147 86.4686 8.55245 85.3364 8.58575C84.2041 8.61905 83.0996 8.94468 82.1319 9.53117C81.1625 10.1177 80.3614 10.9447 79.8063 11.9308C79.2513 12.9188 78.9608 14.0326 78.9627 15.1648C78.9645 16.2971 79.2605 17.409 79.8193 18.3952C80.378 19.3813 81.1828 20.2027 82.1541 20.7855C83.1255 21.3683 84.2318 21.6884 85.3623 21.718C86.4945 21.7476 87.6157 21.483 88.6148 20.9502L89.7878 23.1556H89.7896Z" fill="#2F80ED"/>
<path d="M97.0048 12.2896C98.7754 12.2896 100.3 13.3886 100.981 14.9649L103.417 13.8289C102.32 11.2739 99.8614 9.49219 97.003 9.49219C95.9021 9.49219 94.8624 9.75676 93.9336 10.2267L95.1047 12.741C95.6783 12.4524 96.3221 12.2896 97.003 12.2896H97.0048Z" fill="#00213D"/>
<path d="M103.42 13.8269L100.983 14.9629C101.228 15.529 101.364 16.1544 101.364 16.8149C101.364 18.6077 100.36 20.1581 98.9038 20.8907L97.7548 18.4245C97.5273 18.5392 97.2738 18.604 97.0055 18.604C96.3062 18.604 95.7049 18.1692 95.4348 17.5475L93.0296 18.6687C92.7854 18.1026 92.6485 17.4772 92.6485 16.8167C92.6485 15.024 93.6531 13.4735 95.1091 12.7409L93.938 10.2266C91.5957 11.4143 89.9824 13.9176 89.9824 16.8167C89.9824 17.8806 90.2026 18.8907 90.593 19.8029C91.6901 22.3579 94.1489 24.1396 97.0074 24.1396C98.1082 24.1396 99.148 23.875 100.077 23.4051C102.419 22.2173 104.032 19.7141 104.032 16.8149C104.032 15.7511 103.812 14.7409 103.422 13.8288L103.42 13.8269Z" fill="#2F80ED"/>
<path d="M100.983 14.9644C100.302 13.388 98.7779 12.2891 97.0074 12.2891C96.3265 12.2891 95.6827 12.4519 95.1091 12.7405C93.6531 13.4731 92.6484 15.0217 92.6484 16.8163C92.6484 17.4768 92.7853 18.1022 93.0296 18.6683L95.4347 17.5471C95.3385 17.3233 95.283 17.0772 95.283 16.8163C95.283 16.1077 95.6808 15.4972 96.2562 15.2086C96.4838 15.0939 96.7372 15.0291 97.0055 15.0291C97.7049 15.0291 98.3062 15.4639 98.5763 16.0855C98.6725 16.3094 98.728 16.5555 98.728 16.8163C98.728 17.5249 98.3302 18.1355 97.7548 18.4241L98.9037 20.8903C100.36 20.1577 101.364 18.6091 101.364 16.8145C101.364 16.154 101.228 15.5286 100.983 14.9625V14.9644Z" fill="white"/>
<path d="M98.5764 16.0877C98.3063 15.4642 97.705 15.0312 97.0057 15.0312C96.7374 15.0312 96.4839 15.0979 96.2564 15.2107C95.681 15.5012 95.2832 16.1099 95.2832 16.8185C95.2832 17.0793 95.3387 17.3273 95.4349 17.5493C95.705 18.1728 96.3063 18.6057 97.0057 18.6057C97.2739 18.6057 97.5274 18.5391 97.755 18.4262C98.3304 18.1358 98.7282 17.5271 98.7282 16.8185C98.7282 16.5576 98.6726 16.3097 98.5764 16.0877Z" fill="#00213D"/>
<path d="M71.4428 10.9125C70.6029 9.98556 69.3374 9.51562 67.6759 9.51562C66.1329 9.51562 64.6343 10.128 63.2245 11.338C62.5196 10.128 61.2856 9.51562 59.5502 9.51562C57.8147 9.51562 56.4197 10.1132 55.1949 11.2936L55.1561 9.51562H51.6797V23.9467H55.5909V14.0614C56.453 13.1918 57.3744 12.7515 58.3328 12.7515C58.9304 12.7515 59.3614 12.9236 59.6538 13.2788C59.9498 13.6396 60.0996 14.202 60.0996 14.9495V23.9467H64.0127V14.0651C64.9266 13.1937 65.885 12.7515 66.8619 12.7515C67.5076 12.7515 67.9942 12.9273 68.3087 13.2769C68.6269 13.6303 68.7897 14.1798 68.7897 14.9106V23.9467H72.7009V15.0438C72.7009 13.2233 72.2772 11.8338 71.4428 10.9125Z" fill="#00213D"/>
<path d="M47.5371 10.7108C46.4658 9.9171 44.8507 9.51562 42.736 9.51562C41.1966 9.51562 39.4649 9.74319 37.587 10.1909L37.4446 10.2242V13.4176L37.6721 13.3639C39.5204 12.9236 41.2244 12.6997 42.7341 12.6997C43.5963 12.6997 44.2457 12.8477 44.6638 13.1382C45.0671 13.4194 45.2632 13.832 45.2632 14.4018V15.2381C44.3752 15.0845 43.476 15.0068 42.5879 15.0068C40.5269 15.0068 38.9543 15.3694 37.9127 16.0873C36.8488 16.82 36.3086 17.9282 36.3086 19.3842C36.3086 20.8403 36.7637 22.0466 37.6592 22.8088C38.5473 23.5637 39.8868 23.9485 41.6388 23.9485C43.0394 23.9485 44.3456 23.5711 45.526 22.8255L45.6573 23.9485H49.1744V14.3352C49.1744 12.7367 48.6231 11.5175 47.5352 10.7108H47.5371ZM45.2632 20.0244C44.3141 20.6941 43.2743 21.0327 42.1735 21.0327C41.5112 21.0327 41.0116 20.8902 40.6916 20.609C40.3752 20.3315 40.2198 19.9171 40.2198 19.3417C40.2198 18.8218 40.4029 18.4444 40.7767 18.189C41.1689 17.9208 41.7776 17.7857 42.5879 17.7857C43.5315 17.7857 44.4307 17.8653 45.2632 18.0207V20.0225V20.0244Z" fill="#00213D"/>
<path d="M28.0409 9.51562C25.8023 9.51562 24.0946 10.1132 22.966 11.2899C21.8393 12.4647 21.2676 14.2409 21.2676 16.5702C21.2676 18.8995 21.9299 20.868 23.2343 22.0984C24.5349 23.325 26.5035 23.9467 29.0844 23.9467C30.8624 23.9467 32.3961 23.8098 33.6413 23.5415L33.7874 23.51V20.326L33.5673 20.3667C32.1686 20.6312 30.7495 20.7644 29.3508 20.7644C27.9521 20.7644 26.879 20.5258 26.1871 20.054C25.5543 19.6229 25.225 19.0031 25.1825 18.1613H34.4701L34.4923 18.0022C34.5737 17.4175 34.6144 16.8218 34.6144 16.2353C34.6144 14.017 34.0594 12.3241 32.9641 11.2048C31.8688 10.0836 30.2111 9.51562 28.0409 9.51562ZM30.7958 15.3269H25.1973C25.2953 14.4666 25.5673 13.8098 26.0058 13.3731C26.4757 12.9069 27.1603 12.6701 28.0409 12.6701C28.966 12.6701 29.6635 12.8977 30.1149 13.3454C30.5534 13.7802 30.7828 14.4462 30.7958 15.325V15.3269Z" fill="#00213D"/>
<path d="M11.8168 23.5119L9.30433 20.0503H8.68453C7.81127 20.0503 6.99351 19.808 6.28861 19.3843C4.85105 18.5221 3.88343 16.9107 3.88343 15.0642C3.88343 12.857 5.26548 10.9865 7.17852 10.3297C7.45234 10.2354 7.73911 10.1669 8.03328 10.1244L8.51062 9.21225L9.50784 7.30105L10.1184 6.13177L10.1831 6.00781H8.51062V6.01336C3.79463 6.11142 0 10.1244 0 15.0642C0 20.0041 3.79463 24.0189 8.51062 24.1151V24.1206H12.2608L11.8187 23.5119H11.8168Z" fill="#2F80ED"/>
<path d="M19.4835 14.2796C19.552 13.8762 19.5909 13.4618 19.5909 13.0363C19.5909 13.0326 19.5909 13.0289 19.5909 13.027C19.5909 12.0834 19.4095 11.1843 19.0839 10.3628C18.5918 9.11768 17.7685 8.05386 16.7268 7.2879C16.1404 6.85682 15.4873 6.52195 14.7842 6.30178C14.3698 6.17227 13.9387 6.08347 13.4928 6.03906L12.9285 7.11954L12.775 7.41371L11.3837 10.0779H12.8693C13.6334 10.0853 14.3254 10.3998 14.8342 10.9105C15.0229 11.0992 15.1857 11.3156 15.3189 11.5525C15.5631 11.9872 15.7037 12.4886 15.7037 13.027C15.7037 13.3471 15.6538 13.6542 15.5613 13.941C15.2541 14.9105 14.4752 15.6579 13.5039 15.8947C13.293 15.9465 13.0728 15.9761 12.8471 15.9761H9.67969L11.552 18.5552L12.2458 19.5117L12.6344 20.0464L12.6455 20.0612L13.9165 21.8133L15.589 24.1186H19.4743L16.5196 20.0483L16.1311 19.5136L15.9572 19.2749C16.0053 19.249 16.0515 19.2231 16.0978 19.1972C17.8462 18.1926 19.1191 16.4017 19.4817 14.2796H19.4835Z" fill="#00213D"/>
</svg>
