<svg width="16" height="16" viewBox="0 0 16 16" fill="none" xmlns="http://www.w3.org/2000/svg">
<path fill-rule="evenodd" clip-rule="evenodd" d="M8.00065 3.33203C8.2952 3.33203 8.53398 3.57081 8.53398 3.86536V7.46563H12.134C12.4285 7.46563 12.6673 7.70441 12.6673 7.99896C12.6673 8.29351 12.4285 8.53229 12.134 8.53229H8.53398V12.132C8.53398 12.4266 8.2952 12.6654 8.00065 12.6654C7.7061 12.6654 7.46731 12.4266 7.46731 12.132V8.53229H3.86732C3.57277 8.53229 3.33398 8.29351 3.33398 7.99896C3.33398 7.70441 3.57277 7.46563 3.86732 7.46563H7.46731V3.86536C7.46731 3.57081 7.7061 3.33203 8.00065 3.33203Z" fill="white"/>
</svg>
