<svg width="16" height="16" viewBox="0 0 16 16" fill="none" xmlns="http://www.w3.org/2000/svg">
<path fill-rule="evenodd" clip-rule="evenodd" d="M4.31054 4.31438C4.50582 4.11914 4.82241 4.11917 5.01765 4.31445L8.1588 7.4562L11.3012 4.31438C11.4965 4.11914 11.8131 4.11917 12.0083 4.31445C12.2036 4.50973 12.2035 4.82631 12.0082 5.02156L8.8662 8.163L12.0083 11.3051C12.2035 11.5003 12.2035 11.8169 12.0083 12.0122C11.813 12.2075 11.4964 12.2075 11.3012 12.0122L8.1594 8.87041L5.01762 12.0122C4.82235 12.2075 4.50577 12.2075 4.31051 12.0122C4.11525 11.8169 4.11525 11.5003 4.31051 11.3051L7.45199 8.1636L4.31048 5.02149C4.11523 4.82621 4.11526 4.50963 4.31054 4.31438Z" fill="#696A6F"/>
</svg>
