<svg width="172" height="124" viewBox="0 0 172 124" fill="none" xmlns="http://www.w3.org/2000/svg">
<g id="Frame 16287" clip-path="url(#clip0_12088_79767)">
<ellipse id="Ellipse 469" cx="82.1295" cy="66.6517" rx="49.192" ry="49.2063" fill="#27AE60"/>
<path id="Vector" d="M77.305 88.8767L57.2394 74.0558C56.0339 73.1653 55.8014 71.4984 56.7201 70.3324L60.0472 66.1104C60.966 64.9444 62.6882 64.7211 63.8937 65.6117L77.4109 75.5956L99.4763 47.5962C100.395 46.4303 102.117 46.207 103.323 47.0975L107.688 50.3221C108.894 51.2125 109.126 52.8795 108.208 54.0454L81.1515 88.378C80.2327 89.5439 78.5105 89.7672 77.305 88.8767Z" fill="#209351"/>
<path id="Vector_2" d="M76.9669 86.4423L56.2954 72.4794C55.0535 71.6405 54.7511 69.9848 55.62 68.7812L58.7665 64.4228C59.6354 63.2192 61.3467 62.9236 62.5886 63.7626L76.5139 73.1686L97.3815 44.265C98.2504 43.0615 99.9617 42.7659 101.204 43.6048L105.701 46.6427C106.943 47.4816 107.245 49.1373 106.377 50.3409L80.789 85.7822C79.9201 86.9857 78.2089 87.2813 76.9669 86.4423Z" fill="white"/>
<path id="Star 4" d="M136.576 14.4029C136.706 13.798 137.569 13.798 137.698 14.4029L138.674 18.9462C138.721 19.1671 138.894 19.3397 139.114 19.3871L143.656 20.3627C144.261 20.4926 144.261 21.3558 143.656 21.4857L139.114 22.4613C138.894 22.5088 138.721 22.6813 138.674 22.9022L137.698 27.4455C137.569 28.0505 136.706 28.0505 136.576 27.4455L135.6 22.9022C135.553 22.6813 135.38 22.5088 135.16 22.4613L130.618 21.4857C130.013 21.3558 130.013 20.4926 130.618 20.3627L135.16 19.3871C135.38 19.3397 135.553 19.1671 135.6 18.9462L136.576 14.4029Z" fill="#FBBB2D"/>
<path id="Star 7" d="M123.587 115.002C123.674 114.598 124.249 114.598 124.335 115.002L124.986 118.031C125.017 118.178 125.132 118.293 125.279 118.324L128.307 118.975C128.711 119.061 128.711 119.637 128.307 119.724L125.279 120.374C125.132 120.406 125.017 120.521 124.986 120.668L124.335 123.697C124.249 124.1 123.674 124.1 123.587 123.697L122.937 120.668C122.905 120.521 122.79 120.406 122.643 120.374L119.615 119.724C119.212 119.637 119.212 119.061 119.615 118.975L122.643 118.324C122.79 118.293 122.905 118.178 122.937 118.031L123.587 115.002Z" fill="#FBBB2D"/>
<path id="Star 9" d="M26.8042 38.2286C26.8764 37.8925 27.3558 37.8925 27.4279 38.2286L27.9698 40.7527C27.9961 40.8754 28.092 40.9713 28.2146 40.9976L30.7379 41.5396C31.0739 41.6118 31.0739 42.0913 30.7379 42.1635L28.2146 42.7055C28.092 42.7319 27.9961 42.8277 27.9698 42.9505L27.4279 45.4745C27.3558 45.8106 26.8764 45.8106 26.8042 45.4745L26.2624 42.9505C26.236 42.8277 26.1402 42.7319 26.0175 42.7055L23.4942 42.1635C23.1582 42.0913 23.1582 41.6118 23.4942 41.5396L26.0175 40.9976C26.1402 40.9713 26.236 40.8754 26.2624 40.7527L26.8042 38.2286Z" fill="#F7A60C"/>
<path id="Star 5" d="M146.117 3.35363C146.189 3.01754 146.668 3.01754 146.74 3.35363L147.282 5.87766C147.309 6.00039 147.404 6.09626 147.527 6.12262L150.05 6.66462C150.386 6.73679 150.386 7.21634 150.05 7.28851L147.527 7.83051C147.404 7.85686 147.309 7.95274 147.282 8.07547L146.74 10.5995C146.668 10.9356 146.189 10.9356 146.117 10.5995L145.575 8.07547C145.549 7.95274 145.453 7.85686 145.33 7.83051L142.807 7.28851C142.471 7.21634 142.471 6.73679 142.807 6.66462L145.33 6.12262C145.453 6.09626 145.549 6.00039 145.575 5.87766L146.117 3.35363Z" fill="#F7A60C"/>
<path id="Star 8" d="M135.021 101.204C135.151 100.599 136.014 100.599 136.144 101.204L137.119 105.747C137.166 105.968 137.339 106.14 137.56 106.188L142.102 107.163C142.707 107.293 142.707 108.157 142.102 108.287L137.56 109.262C137.339 109.31 137.166 109.482 137.119 109.703L136.144 114.246C136.014 114.851 135.151 114.851 135.021 114.246L134.046 109.703C133.998 109.482 133.826 109.31 133.605 109.262L129.063 108.287C128.458 108.157 128.458 107.293 129.063 107.163L133.605 106.188C133.826 106.14 133.998 105.968 134.046 105.747L135.021 101.204Z" fill="#F7A60C"/>
<path id="Star 10" d="M14.7442 46.3315C14.9173 45.5249 16.0679 45.5249 16.2411 46.3315L17.5415 52.3892C17.6047 52.6837 17.8347 52.9138 18.1292 52.9771L24.1851 54.2779C24.9915 54.4511 24.9915 55.602 24.1851 55.7752L18.1292 57.076C17.8347 57.1393 17.6047 57.3694 17.5415 57.6639L16.2411 63.7216C16.0679 64.5282 14.9173 64.5282 14.7442 63.7216L13.4437 57.6639C13.3805 57.3694 13.1505 57.1393 12.856 57.076L6.80011 55.7752C5.99372 55.602 5.99371 54.4511 6.8001 54.2779L12.856 52.9771C13.1505 52.9138 13.3805 52.6837 13.4437 52.3892L14.7442 46.3315Z" fill="#FBBB2D"/>
<path id="Star 6" d="M126.642 7.93971C126.696 7.68676 127.057 7.68676 127.111 7.93971L127.519 9.8393C127.539 9.93166 127.611 10.0038 127.703 10.0237L129.602 10.4316C129.855 10.4859 129.855 10.8468 129.602 10.9011L127.703 11.309C127.611 11.3289 127.539 11.401 127.519 11.4934L127.111 13.393C127.057 13.6459 126.696 13.6459 126.642 13.393L126.234 11.4934C126.214 11.401 126.142 11.3289 126.05 11.309L124.151 10.9011C123.898 10.8468 123.898 10.4859 124.151 10.4316L126.05 10.0237C126.142 10.0038 126.214 9.93166 126.234 9.8393L126.642 7.93971Z" fill="#F7A60C"/>
<path id="Vector 49" d="M46.8721 101.141C84.81 115.489 127.703 84.8883 126.287 45.3413C149.143 95.3289 88.05 139.946 46.8721 101.141Z" fill="#24A75B"/>
</g>
<defs>
<clipPath id="clip0_12088_79767">
<rect width="172" height="124" fill="white"/>
</clipPath>
</defs>
</svg>
