<svg width="14" height="14" viewBox="0 0 14 14" fill="none" xmlns="http://www.w3.org/2000/svg">
<path fill-rule="evenodd" clip-rule="evenodd" d="M6.99999 0C7.44182 0 7.8 0.358172 7.8 0.8V6.20039H13.2C13.6418 6.20039 14 6.55856 14 7.00039C14 7.44222 13.6418 7.80039 13.2 7.80039H7.8V13.2C7.8 13.6418 7.44182 14 6.99999 14C6.55817 14 6.2 13.6418 6.2 13.2V7.80039H0.8C0.358172 7.80039 0 7.44222 0 7.00039C0 6.55856 0.358172 6.20039 0.8 6.20039H6.2V0.8C6.2 0.358172 6.55817 0 6.99999 0Z" fill="white"/>
</svg>
