<svg width="32" height="32" viewBox="0 0 32 32" fill="none" xmlns="http://www.w3.org/2000/svg">
<path d="M16.0003 29.3346C17.7516 29.3369 19.4861 28.993 21.1041 28.3228C22.722 27.6526 24.1916 26.6693 25.4283 25.4293C26.6683 24.1926 27.6517 22.723 28.3219 21.105C28.9921 19.4871 29.3359 17.7526 29.3336 16.0013C29.3359 14.25 28.992 12.5156 28.3218 10.8976C27.6516 9.27962 26.6683 7.81005 25.4283 6.57331C24.1916 5.33333 22.722 4.34998 21.1041 3.67977C19.4861 3.00956 17.7516 2.66571 16.0003 2.66798C14.249 2.66575 12.5146 3.00961 10.8966 3.67982C9.27865 4.35003 7.80907 5.33336 6.57233 6.57331C5.33238 7.81005 4.34905 9.27962 3.67884 10.8976C3.00864 12.5156 2.66477 14.25 2.667 16.0013C2.66473 17.7526 3.00858 19.4871 3.67879 21.105C4.349 22.723 5.33235 24.1926 6.57233 25.4293C7.80907 26.6692 9.27865 27.6526 10.8966 28.3228C12.5146 28.993 14.249 29.3369 16.0003 29.3346Z" fill="#EB5757"/>
<path d="M23.1241 18.9393L17.3985 8.8147C17.2554 8.56665 17.0512 8.36099 16.806 8.21808C16.5608 8.07518 16.2832 8 16.0007 8C15.7181 8 15.4405 8.07518 15.1953 8.21808C14.9501 8.36099 14.7459 8.56665 14.6028 8.8147L8.87721 18.9393C8.73954 19.1792 8.66699 19.4521 8.66699 19.7299C8.66699 20.0078 8.73954 20.2807 8.87721 20.5206C9.01845 20.7701 9.22236 20.9769 9.46801 21.1197C9.71366 21.2625 9.9922 21.3362 10.2751 21.3332H21.7263C22.0089 21.336 22.2872 21.2622 22.5326 21.1194C22.7779 20.9766 22.9817 20.7699 23.1228 20.5206C23.2607 20.2808 23.3334 20.008 23.3337 19.7301C23.3339 19.4522 23.2616 19.1793 23.1241 18.9393ZM22.216 19.9866C22.1661 20.0733 22.0944 20.1449 22.0084 20.1941C21.9223 20.2433 21.8249 20.2683 21.7263 20.2666H10.2751C10.1764 20.2683 10.079 20.2433 9.99295 20.1941C9.90689 20.1449 9.83523 20.0733 9.78532 19.9866C9.7401 19.9087 9.71625 19.8198 9.71625 19.7293C9.71625 19.6387 9.7401 19.5499 9.78532 19.4719L15.5109 9.34736C15.5618 9.26108 15.6338 9.18968 15.7199 9.14011C15.8059 9.09055 15.9031 9.0645 16.002 9.0645C16.1008 9.0645 16.198 9.09055 16.2841 9.14011C16.3701 9.18968 16.4421 9.26108 16.493 9.34736L22.2186 19.4719C22.2634 19.5501 22.2868 19.6391 22.2864 19.7296C22.2859 19.8201 22.2616 19.9089 22.216 19.9866ZM15.4769 16V13.3333C15.4769 13.1919 15.5321 13.0562 15.6303 12.9562C15.7285 12.8562 15.8617 12.8 16.0007 12.8C16.1396 12.8 16.2728 12.8562 16.371 12.9562C16.4693 13.0562 16.5244 13.1919 16.5244 13.3333V16C16.5244 16.1414 16.4693 16.2771 16.371 16.3771C16.2728 16.4771 16.1396 16.5333 16.0007 16.5333C15.8617 16.5333 15.7285 16.4771 15.6303 16.3771C15.5321 16.2771 15.4769 16.1414 15.4769 16ZM16.7863 18.3999C16.7863 18.5582 16.7402 18.7128 16.6539 18.8444C16.5676 18.976 16.4449 19.0785 16.3013 19.139C16.1578 19.1996 15.9998 19.2154 15.8474 19.1846C15.695 19.1537 15.555 19.0775 15.4451 18.9656C15.3352 18.8537 15.2604 18.7112 15.2301 18.556C15.1998 18.4008 15.2153 18.24 15.2748 18.0938C15.3342 17.9476 15.435 17.8227 15.5642 17.7348C15.6934 17.6469 15.8453 17.6 16.0007 17.6C16.209 17.6 16.4089 17.6842 16.5562 17.8343C16.7035 17.9843 16.7863 18.1878 16.7863 18.3999Z" fill="white"/>
</svg>
